<svg width="120" height="40" viewBox="0 0 120 40" fill="none" xmlns="http://www.w3.org/2000/svg">
<path d="M112.455 39.9873C112.15 39.9941 111.837 39.998 111.531 39.998L112.455 39.9873ZM112.455 39.9873C113.128 39.9789 113.798 39.9198 114.461 39.8105L112.455 39.9873ZM7.55 0.514768L7.54798 0.5148C6.90026 0.522396 6.25407 0.579196 5.61501 0.684701C5.00172 0.788441 4.40767 0.98384 3.8529 1.26428C3.30021 1.5466 2.79524 1.91335 2.35628 2.3512L2.35486 2.35262L2.35485 2.35261C1.91443 2.7884 1.54735 3.29206 1.2677 3.8442L1.26727 3.84505C0.985577 4.39858 0.790272 4.9917 0.688071 5.60392L0.687927 5.60478C0.580582 6.24096 0.52282 6.88446 0.515157 7.52953L0.515048 7.53876L0.514962 7.53875C0.508778 7.74249 0.506397 7.94339 0.503954 8.14937C0.50279 8.24761 0.501611 8.34701 0.5 8.44843V31.5547C0.501589 31.6559 0.502757 31.7542 0.503908 31.851C0.506367 32.0578 0.508746 32.2579 0.514968 32.4656L0.515239 32.4746H0.515157C0.522823 33.1196 0.580585 33.7631 0.687926 34.3992L0.688117 34.4004C0.790017 35.0128 0.9853 35.6062 1.26721 36.1598L1.26745 36.1603C1.54677 36.7103 1.91364 37.2115 2.35383 37.6446L2.35776 37.6484C2.7943 38.0875 3.29878 38.4539 3.85193 38.7335L3.8525 38.7338C4.40743 39.0151 5.00161 39.2119 5.61518 39.3174C6.25453 39.422 6.90083 39.4788 7.54868 39.4873L7.55308 39.4874C7.86003 39.4942 8.16089 39.498 8.46364 39.498H8.46637C8.83083 39.5 9.19213 39.5 9.55934 39.5H9.56145H110.444H110.446C110.806 39.5 111.17 39.5 111.528 39.498L111.531 39.498C111.832 39.498 112.142 39.4942 112.444 39.4874L112.449 39.4873C113.096 39.4793 113.74 39.4225 114.378 39.3175C114.994 39.2112 115.591 39.0144 116.149 38.7335C116.702 38.4538 117.206 38.0874 117.642 37.6486L117.645 37.6457C118.084 37.2103 118.453 36.7086 118.736 36.1592C119.015 35.6056 119.208 35.0129 119.309 34.4015L119.309 34.3991C119.417 33.7626 119.477 33.119 119.488 32.4737C119.492 32.1669 119.492 31.8694 119.492 31.5586V31.5479L119.492 31.5479C119.5 31.1908 119.5 30.8349 119.5 30.4648V9.53623C119.5 9.1691 119.5 8.81123 119.492 8.45523L119.492 8.44444C119.492 8.13738 119.492 7.83304 119.488 7.53022C119.477 6.88489 119.417 6.24133 119.309 5.60486L119.309 5.60275C119.208 4.99139 119.015 4.3988 118.736 3.84526C118.165 2.73685 117.26 1.83424 116.148 1.26437C115.591 0.98449 114.994 0.789053 114.378 0.684518C113.741 0.578607 113.096 0.521819 112.45 0.514659L112.447 0.514632C112.391 0.51372 112.334 0.512784 112.277 0.511848L7.55 0.514768ZM7.55 0.514768C7.61513 0.51374 7.67976 0.512677 7.74403 0.51162C7.9877 0.507612 8.22615 0.50369 8.46659 0.502121L7.55 0.514768ZM110.444 0.50013H110.88H9.56145H110.444Z" stroke="#2B2B2B"/>
<path d="M24.8384 20.3006C24.8492 19.4659 25.0715 18.6475 25.4847 17.9216C25.8979 17.1956 26.4885 16.5857 27.2016 16.1485C26.7486 15.5033 26.151 14.9724 25.4562 14.5979C24.7614 14.2233 23.9887 14.0155 23.1992 13.9908C21.5153 13.8146 19.8828 14.9957 19.0247 14.9957C18.1499 14.9957 16.8287 14.0083 15.406 14.0375C14.4858 14.0672 13.5889 14.334 12.8028 14.8121C12.0168 15.2901 11.3683 15.9631 10.9205 16.7654C8.98111 20.1138 10.4278 25.0348 12.2856 27.7414C13.2151 29.0668 14.3014 30.5472 15.7228 30.4947C17.1138 30.4372 17.6333 29.6102 19.3123 29.6102C20.9757 29.6102 21.4631 30.4947 22.9133 30.4613C24.4059 30.4372 25.3463 29.1301 26.2432 27.7922C26.911 26.8479 27.4249 25.8041 27.7659 24.6997C26.8987 24.334 26.1587 23.7218 25.6382 22.9395C25.1176 22.1572 24.8394 21.2394 24.8384 20.3006Z" fill="#2B2B2B"/>
<path d="M22.0991 12.2108C22.913 11.2366 23.3139 9.98444 23.2168 8.72021C21.9735 8.85043 20.825 9.44299 20.0002 10.3798C19.5969 10.8375 19.2881 11.3699 19.0913 11.9467C18.8945 12.5235 18.8136 13.1332 18.8533 13.7412C19.4752 13.7476 20.0904 13.6132 20.6526 13.3481C21.2149 13.083 21.7095 12.6941 22.0991 12.2108Z" fill="#2B2B2B"/>
<path d="M42.4212 27.1396H37.6745L36.5346 30.4961H34.524L39.02 18.0781H41.1089L45.6049 30.4961H43.5601L42.4212 27.1396ZM38.1661 25.5908H41.9286L40.0738 20.1436H40.0219L38.1661 25.5908Z" fill="#2B2B2B"/>
<path d="M55.3147 25.9697C55.3147 28.7831 53.8046 30.5908 51.5258 30.5908C50.9485 30.6209 50.3744 30.4883 49.8692 30.2081C49.364 29.928 48.9481 29.5116 48.6691 29.0068H48.626V33.4911H46.7624V21.4423H48.5663V22.9482H48.6006C48.8923 22.4457 49.3153 22.0315 49.8243 21.7497C50.3334 21.4679 50.9095 21.3289 51.4915 21.3476C53.7957 21.3476 55.3147 23.164 55.3147 25.9697ZM53.3992 25.9697C53.3992 24.1367 52.4492 22.9316 50.9999 22.9316C49.576 22.9316 48.6182 24.1621 48.6182 25.9697C48.6182 27.7939 49.576 29.0156 50.9999 29.0156C52.4492 29.0156 53.3992 27.8193 53.3992 25.9697Z" fill="#2B2B2B"/>
<path d="M65.3075 25.9697C65.3075 28.7831 63.7974 30.5907 61.5186 30.5907C60.9413 30.6209 60.3672 30.4883 59.862 30.2081C59.3568 29.928 58.9409 29.5116 58.6619 29.0068H58.6188V33.4911H56.7552V21.4423H58.5591V22.9482H58.5933C58.8851 22.4457 59.308 22.0315 59.8171 21.7497C60.3261 21.4679 60.9023 21.3289 61.4842 21.3476C63.7886 21.3476 65.3075 23.164 65.3075 25.9697ZM63.392 25.9697C63.392 24.1367 62.442 22.9316 60.9927 22.9316C59.5688 22.9316 58.611 24.1621 58.611 25.9697C58.611 27.7939 59.5688 29.0156 60.9927 29.0156C62.442 29.0156 63.392 27.8193 63.392 25.9697H63.392Z" fill="#2B2B2B"/>
<path d="M71.9119 27.0362C72.05 28.2676 73.2496 29.0761 74.889 29.0761C76.4598 29.0761 77.5899 28.2676 77.5899 27.1572C77.5899 26.1933 76.9083 25.6162 75.2944 25.2207L73.6805 24.833C71.3939 24.2822 70.3323 23.2158 70.3323 21.4853C70.3323 19.3428 72.2047 17.8711 74.8635 17.8711C77.4949 17.8711 79.2988 19.3428 79.3595 21.4853H77.4782C77.3656 20.2461 76.3383 19.498 74.8371 19.498C73.3358 19.498 72.3085 20.2549 72.3085 21.3564C72.3085 22.2344 72.9646 22.751 74.5697 23.1464L75.9417 23.4824C78.4967 24.0849 79.5583 25.1084 79.5583 26.9247C79.5583 29.248 77.7025 30.7031 74.7509 30.7031C71.9892 30.7031 70.1246 29.2822 70.0042 27.0361L71.9119 27.0362Z" fill="#2B2B2B"/>
<path d="M83.5803 19.2998V21.4424H85.3068V22.9141H83.5803V27.9052C83.5803 28.6806 83.926 29.042 84.6849 29.042C84.8899 29.0384 85.0945 29.024 85.298 28.999V30.4618C84.9567 30.5254 84.6099 30.5542 84.2628 30.5478C82.4247 30.5478 81.7078 29.8593 81.7078 28.1035V22.9141H80.3878V21.4424H81.7078V19.2998H83.5803Z" fill="#2B2B2B"/>
<path d="M86.3066 25.9697C86.3066 23.1211 87.9891 21.3311 90.6126 21.3311C93.245 21.3311 94.9196 23.121 94.9196 25.9697C94.9196 28.8261 93.2538 30.6084 90.6126 30.6084C87.9724 30.6084 86.3066 28.8261 86.3066 25.9697ZM93.0207 25.9697C93.0207 24.0156 92.1227 22.8623 90.6126 22.8623C89.1025 22.8623 88.2055 24.0244 88.2055 25.9697C88.2055 27.9316 89.1025 29.0761 90.6126 29.0761C92.1227 29.0761 93.0207 27.9316 93.0207 25.9697H93.0207Z" fill="#2B2B2B"/>
<path d="M96.4562 21.4425H98.2336V22.9835H98.2767C98.397 22.5022 98.6797 22.0769 99.0774 21.779C99.4751 21.4811 99.9636 21.3288 100.461 21.3478C100.675 21.347 100.89 21.3703 101.099 21.4171V23.1554C100.828 23.0728 100.545 23.0348 100.262 23.0431C99.991 23.0321 99.7211 23.0797 99.4706 23.1826C99.22 23.2855 98.9948 23.4412 98.8103 23.6391C98.6258 23.837 98.4864 24.0724 98.4018 24.329C98.3171 24.5857 98.2891 24.8576 98.3198 25.1261V30.4962H96.4562L96.4562 21.4425Z" fill="#2B2B2B"/>
<path d="M109.692 27.8369C109.441 29.4804 107.836 30.6084 105.782 30.6084C103.141 30.6084 101.502 28.8437 101.502 26.0127C101.502 23.1728 103.15 21.3311 105.704 21.3311C108.216 21.3311 109.795 23.0517 109.795 25.7969V26.4336H103.383V26.5459C103.353 26.8791 103.395 27.2147 103.506 27.5306C103.616 27.8464 103.793 28.1352 104.024 28.3778C104.255 28.6203 104.535 28.8111 104.845 28.9374C105.156 29.0637 105.49 29.1226 105.825 29.1103C106.266 29.1515 106.708 29.0498 107.085 28.8203C107.463 28.5909 107.757 28.246 107.922 27.8369L109.692 27.8369ZM103.392 25.1348H107.931C107.947 24.8352 107.902 24.5353 107.797 24.2541C107.692 23.9729 107.53 23.7164 107.321 23.5006C107.112 23.2849 106.86 23.1145 106.582 23.0003C106.304 22.8861 106.005 22.8305 105.704 22.8369C105.4 22.8351 105.099 22.8932 104.819 23.008C104.538 23.1227 104.283 23.2918 104.068 23.5054C103.853 23.7191 103.682 23.973 103.566 24.2527C103.45 24.5323 103.391 24.8321 103.392 25.1348V25.1348Z" fill="#2B2B2B"/>
<path d="M37.9324 8.73114C38.3231 8.70318 38.7152 8.76204 39.0803 8.90347C39.4455 9.0449 39.7746 9.26538 40.0439 9.54901C40.3133 9.83263 40.5161 10.1723 40.6379 10.5436C40.7596 10.9149 40.7972 11.3085 40.7479 11.696C40.7479 13.6022 39.7148 14.698 37.9324 14.698H35.7711V8.73114H37.9324ZM36.7005 13.8541H37.8286C38.1078 13.8708 38.3872 13.8251 38.6465 13.7205C38.9057 13.6159 39.1383 13.4549 39.3274 13.2494C39.5164 13.0438 39.6571 12.7988 39.7392 12.5322C39.8213 12.2656 39.8427 11.984 39.8019 11.7081C39.8397 11.4333 39.8161 11.1535 39.7328 10.8889C39.6494 10.6242 39.5084 10.3812 39.3198 10.1773C39.1312 9.97334 38.8997 9.81353 38.6419 9.70929C38.3841 9.60506 38.1064 9.55897 37.8286 9.57434H36.7005V13.8541Z" fill="#2B2B2B"/>
<path d="M41.7979 12.4443C41.7695 12.1484 41.8034 11.8498 41.8975 11.5677C41.9916 11.2857 42.1438 11.0263 42.3443 10.8063C42.5448 10.5864 42.7892 10.4106 43.0618 10.2903C43.3344 10.17 43.6292 10.1079 43.9274 10.1079C44.2255 10.1079 44.5203 10.17 44.7929 10.2903C45.0655 10.4106 45.3099 10.5864 45.5104 10.8063C45.7109 11.0263 45.8631 11.2857 45.9572 11.5677C46.0513 11.8498 46.0852 12.1484 46.0569 12.4443C46.0858 12.7405 46.0522 13.0395 45.9584 13.322C45.8645 13.6045 45.7124 13.8643 45.5119 14.0848C45.3113 14.3052 45.0667 14.4813 44.7939 14.6018C44.521 14.7224 44.2258 14.7846 43.9274 14.7846C43.6289 14.7846 43.3337 14.7224 43.0608 14.6018C42.788 14.4813 42.5434 14.3052 42.3428 14.0848C42.1423 13.8643 41.9902 13.6045 41.8963 13.322C41.8025 13.0395 41.7689 12.7405 41.7979 12.4443ZM45.1402 12.4443C45.1402 11.4682 44.7005 10.8974 43.9288 10.8974C43.1542 10.8974 42.7184 11.4682 42.7184 12.4443C42.7184 13.4282 43.1542 13.9946 43.9288 13.9946C44.7005 13.9946 45.1402 13.4243 45.1402 12.4443H45.1402Z" fill="#2B2B2B"/>
<path d="M51.7182 14.6977H50.7937L49.8604 11.3813H49.7899L48.8606 14.6977H47.9449L46.7002 10.1948H47.6041L48.413 13.6308H48.4796L49.408 10.1948H50.2629L51.1913 13.6308H51.2618L52.0668 10.1948H52.958L51.7182 14.6977Z" fill="#2B2B2B"/>
<path d="M54.0048 10.1949H54.8627V10.9102H54.9293C55.0422 10.6533 55.2328 10.4379 55.4743 10.2941C55.7159 10.1503 55.9964 10.0852 56.2768 10.1079C56.4965 10.0915 56.7171 10.1245 56.9223 10.2046C57.1275 10.2847 57.3119 10.4098 57.462 10.5706C57.6121 10.7315 57.724 10.924 57.7894 11.1338C57.8548 11.3436 57.872 11.5654 57.8397 11.7827V14.6977H56.9486V12.0059C56.9486 11.2823 56.6333 10.9224 55.9742 10.9224C55.825 10.9155 55.6761 10.9408 55.5376 10.9966C55.3992 11.0525 55.2745 11.1375 55.1721 11.2459C55.0697 11.3542 54.992 11.4834 54.9443 11.6246C54.8967 11.7657 54.8802 11.9154 54.896 12.0635V14.6978H54.0048L54.0048 10.1949Z" fill="#2B2B2B"/>
<path d="M59.2597 8.43701H60.1509V14.6977H59.2597V8.43701Z" fill="#2B2B2B"/>
<path d="M61.3897 12.4444C61.3614 12.1484 61.3954 11.8498 61.4895 11.5678C61.5836 11.2857 61.7358 11.0263 61.9363 10.8063C62.1369 10.5864 62.3813 10.4106 62.6539 10.2903C62.9265 10.17 63.2214 10.1079 63.5195 10.1079C63.8176 10.1079 64.1124 10.17 64.3851 10.2903C64.6577 10.4106 64.9021 10.5864 65.1026 10.8063C65.3032 11.0263 65.4554 11.2857 65.5495 11.5678C65.6436 11.8498 65.6776 12.1484 65.6492 12.4444C65.6781 12.7406 65.6445 13.0396 65.5507 13.3221C65.4568 13.6046 65.3047 13.8644 65.1041 14.0848C64.9035 14.3053 64.6589 14.4814 64.386 14.6019C64.1131 14.7224 63.818 14.7847 63.5195 14.7847C63.221 14.7847 62.9259 14.7224 62.653 14.6019C62.3801 14.4814 62.1355 14.3053 61.9349 14.0848C61.7343 13.8644 61.5822 13.6046 61.4883 13.3221C61.3944 13.0396 61.3609 12.7406 61.3897 12.4444ZM64.7321 12.4444C64.7321 11.4683 64.2924 10.8975 63.5207 10.8975C62.7461 10.8975 62.3103 11.4683 62.3103 12.4444C62.3103 13.4283 62.7461 13.9947 63.5207 13.9947C64.2924 13.9946 64.7321 13.4243 64.7321 12.4444H64.7321Z" fill="#2B2B2B"/>
<path d="M66.5874 13.4243C66.5874 12.6138 67.1926 12.1465 68.2669 12.0801L69.4901 12.0098V11.6211C69.4901 11.1455 69.1747 10.8769 68.5656 10.8769C68.0681 10.8769 67.7234 11.0591 67.6245 11.3774H66.7617C66.8528 10.604 67.5824 10.1079 68.6068 10.1079C69.7388 10.1079 70.3773 10.6699 70.3773 11.6211V14.6977H69.5195V14.0649H69.449C69.3058 14.2919 69.1049 14.477 68.8666 14.6012C68.6283 14.7254 68.3612 14.7843 68.0926 14.7719C67.9031 14.7916 67.7115 14.7714 67.5302 14.7127C67.3489 14.654 67.182 14.5581 67.0402 14.4311C66.8984 14.3042 66.7848 14.149 66.7068 13.9756C66.6289 13.8021 66.5882 13.6144 66.5874 13.4243ZM69.4901 13.0395V12.6631L68.3874 12.7334C67.7655 12.7749 67.4835 12.9858 67.4835 13.3828C67.4835 13.7881 67.836 14.0239 68.3208 14.0239C68.4629 14.0382 68.6064 14.0239 68.7427 13.9818C68.8791 13.9398 69.0056 13.8707 69.1147 13.7789C69.2238 13.6871 69.3133 13.5743 69.3777 13.4472C69.4422 13.3202 69.4804 13.1816 69.4901 13.0395Z" fill="#2B2B2B"/>
<path d="M71.5486 12.4443C71.5486 11.0215 72.2821 10.1201 73.4229 10.1201C73.7051 10.1072 73.9852 10.1746 74.2304 10.3145C74.4757 10.4544 74.6759 10.661 74.8077 10.9101H74.8743V8.43701H75.7654V14.6977H74.9115V13.9863H74.841C74.699 14.2338 74.4918 14.4378 74.2418 14.5763C73.9919 14.7148 73.7087 14.7824 73.423 14.7719C72.2742 14.772 71.5486 13.8706 71.5486 12.4443ZM72.4691 12.4443C72.4691 13.3994 72.9206 13.9741 73.6756 13.9741C74.4267 13.9741 74.891 13.3911 74.891 12.4482C74.891 11.5098 74.4219 10.9185 73.6756 10.9185C72.9255 10.9185 72.4691 11.4971 72.4691 12.4443H72.4691Z" fill="#2B2B2B"/>
<path d="M79.4526 12.4443C79.4242 12.1484 79.4581 11.8498 79.5522 11.5677C79.6463 11.2857 79.7985 11.0263 79.999 10.8063C80.1995 10.5864 80.4439 10.4106 80.7165 10.2903C80.9892 10.17 81.284 10.1079 81.5821 10.1079C81.8802 10.1079 82.175 10.17 82.4476 10.2903C82.7202 10.4106 82.9646 10.5864 83.1651 10.8063C83.3656 11.0263 83.5178 11.2857 83.6119 11.5677C83.706 11.8498 83.74 12.1484 83.7116 12.4443C83.7405 12.7405 83.707 13.0395 83.6131 13.322C83.5192 13.6045 83.3671 13.8643 83.1666 14.0848C82.966 14.3052 82.7215 14.4813 82.4486 14.6018C82.1757 14.7224 81.8805 14.7846 81.5821 14.7846C81.2836 14.7846 80.9885 14.7224 80.7156 14.6018C80.4427 14.4813 80.1981 14.3052 79.9975 14.0848C79.797 13.8643 79.6449 13.6045 79.551 13.322C79.4572 13.0395 79.4237 12.7405 79.4526 12.4443ZM82.7949 12.4443C82.7949 11.4682 82.3552 10.8974 81.5835 10.8974C80.8089 10.8974 80.3732 11.4682 80.3732 12.4443C80.3732 13.4282 80.8089 13.9946 81.5835 13.9946C82.3552 13.9946 82.7949 13.4243 82.7949 12.4443Z" fill="#2B2B2B"/>
<path d="M84.9072 10.1949H85.7651V10.9102H85.8317C85.9447 10.6533 86.1352 10.4379 86.3768 10.2941C86.6183 10.1503 86.8988 10.0852 87.1792 10.1079C87.3989 10.0915 87.6196 10.1245 87.8247 10.2046C88.0299 10.2847 88.2144 10.4098 88.3645 10.5706C88.5146 10.7315 88.6265 10.924 88.6919 11.1338C88.7572 11.3436 88.7744 11.5654 88.7422 11.7827V14.6977H87.851V12.0059C87.851 11.2823 87.5357 10.9224 86.8766 10.9224C86.7274 10.9155 86.5785 10.9408 86.4401 10.9966C86.3016 11.0525 86.1769 11.1375 86.0745 11.2459C85.9721 11.3542 85.8944 11.4834 85.8467 11.6246C85.7991 11.7657 85.7826 11.9154 85.7984 12.0635V14.6978H84.9072V10.1949Z" fill="#2B2B2B"/>
<path d="M93.7777 9.07373V10.2153H94.756V10.9639H93.7777V13.2793C93.7777 13.751 93.9726 13.9575 94.4162 13.9575C94.5298 13.9571 94.6432 13.9503 94.756 13.937V14.6772C94.596 14.7058 94.4338 14.721 94.2712 14.7226C93.2802 14.7226 92.8855 14.375 92.8855 13.5068V10.9638H92.1687V10.2153H92.8855V9.07373H93.7777Z" fill="#2B2B2B"/>
<path d="M95.9734 8.43701H96.8567V10.9185H96.9272C97.0457 10.6591 97.2414 10.4425 97.4878 10.2982C97.7342 10.1538 98.0192 10.0888 98.3041 10.1118C98.5226 10.1 98.7411 10.1363 98.944 10.2184C99.1468 10.3004 99.329 10.4261 99.4776 10.5864C99.6261 10.7468 99.7373 10.9378 99.8033 11.146C99.8692 11.3541 99.8883 11.5742 99.8592 11.7905V14.6977H98.9671V12.0097C98.9671 11.2905 98.6312 10.9263 98.0015 10.9263C97.8484 10.9137 97.6943 10.9347 97.5501 10.9878C97.4059 11.0408 97.2751 11.1247 97.1668 11.2334C97.0585 11.3421 96.9754 11.4732 96.9232 11.6173C96.871 11.7614 96.851 11.9152 96.8646 12.0678V14.6977H95.9734L95.9734 8.43701Z" fill="#2B2B2B"/>
<path d="M105.055 13.482C104.934 13.8935 104.672 14.2495 104.314 14.4877C103.957 14.7258 103.526 14.831 103.099 14.7847C102.801 14.7926 102.506 14.7357 102.232 14.6182C101.959 14.5007 101.715 14.3253 101.516 14.1041C101.318 13.883 101.17 13.6214 101.083 13.3376C100.996 13.0538 100.972 12.7545 101.013 12.4605C100.973 12.1656 100.998 11.8657 101.084 11.581C101.171 11.2964 101.318 11.0336 101.515 10.8105C101.713 10.5874 101.956 10.4093 102.229 10.2881C102.501 10.1669 102.796 10.1054 103.095 10.108C104.351 10.108 105.109 10.964 105.109 12.378V12.6881H101.921V12.7379C101.907 12.9031 101.927 13.0694 101.982 13.2262C102.036 13.3829 102.123 13.5266 102.236 13.6481C102.349 13.7696 102.486 13.8661 102.639 13.9315C102.792 13.9969 102.957 14.0297 103.123 14.0279C103.336 14.0534 103.552 14.0151 103.744 13.9179C103.935 13.8207 104.093 13.6689 104.197 13.482L105.055 13.482ZM101.921 12.0308H104.201C104.213 11.8797 104.192 11.7279 104.141 11.5852C104.09 11.4425 104.009 11.312 103.905 11.2021C103.8 11.0923 103.673 11.0055 103.533 10.9473C103.393 10.8891 103.242 10.8609 103.09 10.8643C102.936 10.8624 102.783 10.8913 102.64 10.9492C102.497 11.0071 102.368 11.093 102.259 11.2017C102.15 11.3104 102.064 11.4398 102.006 11.5822C101.947 11.7246 101.919 11.8771 101.921 12.0308H101.921Z" fill="#2B2B2B"/>
</svg>
