<svg width="136" height="41" viewBox="0 0 136 41" fill="none" xmlns="http://www.w3.org/2000/svg">
<path d="M130.238 40.01H5.23827C2.43827 40.01 0.238281 37.7094 0.238281 35.0088V5.00125C0.238281 2.20055 2.53827 0 5.23827 0H130.238C133.038 0 135.238 2.30058 135.238 5.00125V35.0088C135.238 37.8095 133.038 40.01 130.238 40.01Z" fill="#F3F8FD"/>
<path d="M130.238 0.8002C132.538 0.8002 134.438 2.70068 134.438 5.00125V35.0088C134.438 37.3093 132.538 39.2098 130.238 39.2098H5.23827C2.93827 39.2098 1.03828 37.3093 1.03828 35.0088V5.00125C1.03828 2.70068 2.93827 0.8002 5.23827 0.8002H130.238ZM130.238 0H5.23827C2.53827 0 0.238281 2.30058 0.238281 5.00125V35.0088C0.238281 37.8095 2.53827 40.01 5.23827 40.01H130.238C133.038 40.01 135.238 37.7094 135.238 35.0088V5.00125C135.238 2.30058 133.038 0 130.238 0Z" fill="#2B2B2B"/>
<path d="M47.6377 10.2026C47.6377 11.0029 47.4377 11.7031 46.9377 12.2033C46.3377 12.8036 45.6377 13.1037 44.7377 13.1037C43.8377 13.1037 43.1377 12.8036 42.5377 12.2033C41.9377 11.6031 41.6377 10.9028 41.6377 10.0025C41.6377 9.10218 41.9377 8.40192 42.5377 7.8017C43.1377 7.20148 43.8377 6.90137 44.7377 6.90137C45.1377 6.90137 45.5377 7.0014 45.9377 7.20148C46.3377 7.40155 46.6377 7.60163 46.8377 7.90174L46.3377 8.40192C45.9377 7.90174 45.4377 7.70166 44.7377 7.70166C44.1377 7.70166 43.5377 7.90174 43.1377 8.40192C42.6377 8.80207 42.4377 9.40229 42.4377 10.1026C42.4377 10.8028 42.6377 11.403 43.1377 11.8032C43.6377 12.2033 44.1377 12.5034 44.7377 12.5034C45.4377 12.5034 45.9377 12.3034 46.4377 11.8032C46.7377 11.5031 46.9377 11.1029 46.9377 10.6027H44.7377V9.80244H47.6377C47.6377 9.90248 47.6377 10.1026 47.6377 10.2026Z" fill="#2B2B2B" stroke="#2B2B2B" stroke-width="0.2" stroke-miterlimit="10"/>
<path d="M52.2383 7.70221H49.5383V9.60292H52.0383V10.3032H49.5383V12.2039H52.2383V13.0042H48.7383V7.00195H52.2383V7.70221Z" fill="#2B2B2B" stroke="#2B2B2B" stroke-width="0.2" stroke-miterlimit="10"/>
<path d="M55.5381 13.0042H54.7381V7.70221H53.0381V7.00195H57.2381V7.70221H55.5381V13.0042Z" fill="#2B2B2B" stroke="#2B2B2B" stroke-width="0.2" stroke-miterlimit="10"/>
<path d="M60.1377 13.0042V7.00195H60.9377V13.0042H60.1377Z" fill="#2B2B2B" stroke="#2B2B2B" stroke-width="0.2" stroke-miterlimit="10"/>
<path d="M64.3379 13.0042H63.5379V7.70221H61.8379V7.00195H65.9379V7.70221H64.2379V13.0042H64.3379Z" fill="#2B2B2B" stroke="#2B2B2B" stroke-width="0.2" stroke-miterlimit="10"/>
<path d="M73.8381 12.2033C73.2381 12.8036 72.5381 13.1037 71.6381 13.1037C70.7381 13.1037 70.0381 12.8036 69.4381 12.2033C68.8381 11.6031 68.5381 10.9028 68.5381 10.0025C68.5381 9.10218 68.8381 8.40192 69.4381 7.8017C70.0381 7.20148 70.7381 6.90137 71.6381 6.90137C72.5381 6.90137 73.2381 7.20148 73.8381 7.8017C74.4381 8.40192 74.7381 9.10218 74.7381 10.0025C74.7381 10.9028 74.4381 11.6031 73.8381 12.2033ZM70.0381 11.7031C70.4381 12.1033 71.0381 12.4034 71.6381 12.4034C72.2381 12.4034 72.8381 12.2033 73.2381 11.7031C73.6381 11.303 73.9381 10.7028 73.9381 10.0025C73.9381 9.30226 73.7381 8.70203 73.2381 8.30189C72.8381 7.90174 72.2381 7.60163 71.6381 7.60163C71.0381 7.60163 70.4381 7.8017 70.0381 8.30189C69.6381 8.70203 69.3381 9.30226 69.3381 10.0025C69.3381 10.7028 69.5381 11.303 70.0381 11.7031Z" fill="#2B2B2B" stroke="#2B2B2B" stroke-width="0.2" stroke-miterlimit="10"/>
<path d="M75.8379 13.0042V7.00195H76.7379L79.6379 11.7037V10.5033V7.00195H80.4379V13.0042H79.6379L76.5379 8.10236V9.30281V13.0042H75.8379Z" fill="#2B2B2B" stroke="#2B2B2B" stroke-width="0.2" stroke-miterlimit="10"/>
<path d="M68.3378 21.8046C65.9378 21.8046 64.0378 23.605 64.0378 26.1055C64.0378 28.5061 65.9378 30.4065 68.3378 30.4065C70.7378 30.4065 72.6378 28.6061 72.6378 26.1055C72.6378 23.505 70.7378 21.8046 68.3378 21.8046ZM68.3378 28.6061C67.0378 28.6061 65.9378 27.5059 65.9378 26.0055C65.9378 24.5052 67.0378 23.4049 68.3378 23.4049C69.6378 23.4049 70.7378 24.4052 70.7378 26.0055C70.7378 27.5059 69.6378 28.6061 68.3378 28.6061ZM59.0378 21.8046C56.6378 21.8046 54.7378 23.605 54.7378 26.1055C54.7378 28.5061 56.6378 30.4065 59.0378 30.4065C61.4378 30.4065 63.3378 28.6061 63.3378 26.1055C63.3378 23.505 61.4378 21.8046 59.0378 21.8046ZM59.0378 28.6061C57.7378 28.6061 56.6378 27.5059 56.6378 26.0055C56.6378 24.5052 57.7378 23.4049 59.0378 23.4049C60.3378 23.4049 61.4378 24.4052 61.4378 26.0055C61.4378 27.5059 60.3378 28.6061 59.0378 28.6061ZM47.9379 23.1049V24.9053H52.2379C52.1379 25.9055 51.7379 26.7057 51.2379 27.2058C50.6379 27.8059 49.6379 28.5061 47.9379 28.5061C45.2379 28.5061 43.2379 26.4056 43.2379 23.705C43.2379 21.0044 45.3379 18.9039 47.9379 18.9039C49.3379 18.9039 50.4379 19.5041 51.2379 20.2042L52.5379 18.9039C51.4379 17.9037 50.0379 17.1035 48.0379 17.1035C44.4379 17.1035 41.3379 20.1042 41.3379 23.705C41.3379 27.3058 44.4379 30.3065 48.0379 30.3065C50.0379 30.3065 51.4379 29.7064 52.6379 28.4061C53.8379 27.2058 54.2379 25.5054 54.2379 24.2051C54.2379 23.805 54.2379 23.4049 54.1379 23.1049H47.9379ZM93.3377 24.5052C92.9377 23.505 91.9377 21.8046 89.7377 21.8046C87.5377 21.8046 85.7378 23.505 85.7378 26.1055C85.7378 28.5061 87.5377 30.4065 89.9377 30.4065C91.8377 30.4065 93.0377 29.2063 93.4377 28.5061L92.0377 27.5059C91.5377 28.206 90.9377 28.7061 89.9377 28.7061C88.9377 28.7061 88.3377 28.306 87.8377 27.4058L93.5377 25.0053L93.3377 24.5052ZM87.5377 25.9055C87.5377 24.3051 88.8377 23.4049 89.7377 23.4049C90.4377 23.4049 91.1377 23.805 91.3377 24.3051L87.5377 25.9055ZM82.8378 30.0064H84.7378V17.5036H82.8378V30.0064ZM79.8378 22.7048C79.3378 22.2047 78.5378 21.7046 77.5378 21.7046C75.4378 21.7046 73.4378 23.605 73.4378 26.0055C73.4378 28.4061 75.3378 30.2065 77.5378 30.2065C78.5378 30.2065 79.3378 29.7064 79.7378 29.2063H79.8378V29.8064C79.8378 31.4067 78.9378 32.3069 77.5378 32.3069C76.4378 32.3069 75.6378 31.5068 75.4378 30.8066L73.8378 31.5068C74.3378 32.607 75.5378 34.0073 77.6378 34.0073C79.8378 34.0073 81.6378 32.707 81.6378 29.6063V22.0046H79.8378V22.7048ZM77.6378 28.6061C76.3378 28.6061 75.2378 27.5059 75.2378 26.0055C75.2378 24.5052 76.3378 23.4049 77.6378 23.4049C78.9378 23.4049 79.9378 24.5052 79.9378 26.0055C79.9378 27.5059 78.9378 28.6061 77.6378 28.6061ZM102.038 17.5036H97.5377V30.0064H99.4377V25.3054H102.038C104.138 25.3054 106.138 23.805 106.138 21.4045C106.138 19.0039 104.138 17.5036 102.038 17.5036ZM102.138 23.505H99.4377V19.204H102.138C103.538 19.204 104.338 20.4043 104.338 21.3045C104.238 22.4047 103.438 23.505 102.138 23.505ZM113.638 21.7046C112.238 21.7046 110.838 22.3047 110.338 23.605L112.038 24.3051C112.438 23.605 113.038 23.4049 113.738 23.4049C114.738 23.4049 115.638 24.0051 115.738 25.0053V25.1053C115.438 24.9053 114.638 24.6052 113.838 24.6052C112.038 24.6052 110.238 25.6054 110.238 27.4058C110.238 29.1062 111.738 30.2065 113.338 30.2065C114.638 30.2065 115.238 29.6063 115.738 29.0062H115.838V30.0064H117.638V25.2053C117.438 23.0048 115.738 21.7046 113.638 21.7046ZM113.438 28.6061C112.838 28.6061 111.938 28.306 111.938 27.5059C111.938 26.5056 113.038 26.2056 113.938 26.2056C114.738 26.2056 115.138 26.4056 115.638 26.6057C115.438 27.8059 114.438 28.6061 113.438 28.6061ZM123.938 22.0046L121.838 27.4058H121.738L119.538 22.0046H117.538L120.838 29.6063L118.938 33.8073H120.838L125.938 22.0046H123.938ZM107.138 30.0064H109.038V17.5036H107.138V30.0064Z" fill="#2B2B2B"/>
<path d="M10.6383 7.50146C10.3383 7.80154 10.2383 8.30166 10.2383 8.90181V31.0073C10.2383 31.6075 10.4383 32.1076 10.7383 32.4077L10.8383 32.5077L23.2382 20.1046V20.0046V19.9046L10.6383 7.50146Z" fill="url(#paint0_linear_79_8348)"/>
<path d="M27.2377 24.3058L23.1377 20.2048V20.0048V19.9047L27.2377 15.8037L27.3377 15.9037L32.2377 18.7044C33.6377 19.5046 33.6377 20.805 32.2377 21.6052L27.2377 24.3058Z" fill="url(#paint1_linear_79_8348)"/>
<path d="M27.3376 24.2064L23.1377 20.0054L10.6377 32.5085C11.1377 33.0086 11.8377 33.0086 12.7377 32.6085L27.3376 24.2064Z" fill="url(#paint2_linear_79_8348)"/>
<path d="M27.3376 15.8037L12.7377 7.50166C11.8377 7.00153 11.1377 7.10156 10.6377 7.60168L23.1377 20.0048L27.3376 15.8037Z" fill="url(#paint3_linear_79_8348)"/>
<path opacity="0.2" d="M27.2376 24.105L12.7377 32.307C11.9377 32.8072 11.2377 32.7071 10.7377 32.307L10.6377 32.4071L10.7377 32.5071C11.2377 32.9072 11.9377 33.0072 12.7377 32.5071L27.2376 24.105Z" fill="#F3F8FD"/>
<path opacity="0.12" d="M10.6373 32.3072C10.3373 32.007 10.2373 31.5067 10.2373 30.9062V31.0063C10.2373 31.6067 10.4373 32.1071 10.7373 32.4073V32.3072H10.6373Z" fill="#F3F8FD"/>
<path opacity="0.12" d="M32.2383 21.3058L27.2383 24.1066L27.3383 24.2066L32.2383 21.4058C32.9383 21.0057 33.2383 20.5055 33.2383 20.0054C33.2383 20.5055 32.8383 20.9056 32.2383 21.3058Z" fill="#F3F8FD"/>
<path opacity="0.25" d="M12.7383 7.60185L32.2383 18.7046C32.8383 19.1047 33.2383 19.5048 33.2383 20.005C33.2383 19.5048 32.9383 19.0047 32.2383 18.6046L12.7383 7.50182C11.3383 6.70162 10.2383 7.30177 10.2383 8.90217V9.0022C10.2383 7.50182 11.3383 6.80165 12.7383 7.60185Z" fill="#2B2B2B"/>
<defs>
<linearGradient id="paint0_linear_79_8348" x1="22.0378" y1="8.71157" x2="5.25124" y2="25.4939" gradientUnits="userSpaceOnUse">
<stop stop-color="#00A0FF"/>
<stop offset="0.00657445" stop-color="#00A1FF"/>
<stop offset="0.2601" stop-color="#00BEFF"/>
<stop offset="0.5122" stop-color="#00D2FF"/>
<stop offset="0.7604" stop-color="#00DFFF"/>
<stop offset="1" stop-color="#00E3FF"/>
</linearGradient>
<linearGradient id="paint1_linear_79_8348" x1="34.072" y1="20.0063" x2="9.87514" y2="20.0063" gradientUnits="userSpaceOnUse">
<stop stop-color="#FFE000"/>
<stop offset="0.4087" stop-color="#FFBD00"/>
<stop offset="0.7754" stop-color="#FFA500"/>
<stop offset="1" stop-color="#FF9C00"/>
</linearGradient>
<linearGradient id="paint2_linear_79_8348" x1="25.0645" y1="22.3021" x2="2.30056" y2="45.0604" gradientUnits="userSpaceOnUse">
<stop stop-color="#FF3A44"/>
<stop offset="1" stop-color="#C31162"/>
</linearGradient>
<linearGradient id="paint3_linear_79_8348" x1="7.53491" y1="0.176126" x2="17.7" y2="10.3386" gradientUnits="userSpaceOnUse">
<stop stop-color="#32A071"/>
<stop offset="0.0685" stop-color="#2DA771"/>
<stop offset="0.4762" stop-color="#15CF74"/>
<stop offset="0.8009" stop-color="#06E775"/>
<stop offset="1" stop-color="#00F076"/>
</linearGradient>
</defs>
</svg>
