<?xml version="1.0" encoding="UTF-8"?><svg width="564" height="318" viewBox="0 0 564 318" fill="none" xmlns="http://www.w3.org/2000/svg">
<g filter="url(#filter0_d_234_67396)">
<path fill-rule="evenodd" clip-rule="evenodd" d="M98.8763 69.7195V82.3203C98.8763 85.951 97.4213 88.6741 94.4074 90.4361C87.1323 94.6541 79.7533 98.9256 72.4782 103.144C69.3083 104.906 66.1385 105.012 62.9166 103.144C55.6416 98.9256 48.2626 94.7609 40.9875 90.5429C38.0774 88.7809 36.3626 86.2714 36.3626 82.8008C36.2587 74.0444 36.3626 65.0743 36.3626 56.2644C36.3626 52.6337 38.3373 50.1776 41.3512 48.4156C48.4184 44.3043 55.6416 40.2999 62.6049 36.0818C66.0345 34.0529 69.5162 34.213 72.79 36.1886C79.8052 40.2999 86.7685 44.3043 93.7838 48.2554C97.2135 50.2844 98.9803 53.1142 98.7724 57.2255C98.7724 61.2834 98.8763 65.5014 98.8763 69.7195Z" fill="white"/>
</g>
<path d="M73.994 73.917C72.9514 74.8423 71.6493 75.9936 69.2884 75.9936H67.8766C66.1682 75.9936 64.6143 75.3726 63.5021 74.247C62.4156 73.1472 61.8175 71.6419 61.8175 70.0079V68.0762C61.8175 66.4422 62.4156 64.9369 63.5021 63.8371C64.6143 62.7115 66.1682 62.0915 67.8766 62.0915H69.2884C71.6522 62.0915 72.9514 63.2419 73.994 64.1672C75.0767 65.1211 76.0105 65.9548 78.5012 65.9548C78.881 65.9547 79.2603 65.9244 79.6354 65.8641L79.6268 65.8422C79.4776 65.4717 79.3026 65.1122 79.1031 64.7662L77.4385 61.8826C76.6879 60.5826 75.6083 59.5031 74.3083 58.7527C73.0082 58.0022 71.5336 57.6071 70.0325 57.6072H66.7024C65.2013 57.6071 63.7266 58.0022 62.4266 58.7527C61.1265 59.5031 60.0469 60.5826 59.2963 61.8826L57.6317 64.7662C56.8814 66.0663 56.4863 67.541 56.4863 69.0421C56.4863 70.5432 56.8814 72.0178 57.6317 73.3179L59.2963 76.2016C60.0469 77.5015 61.1265 78.581 62.4266 79.3315C63.7266 80.0819 65.2013 80.477 66.7024 80.4769H70.0325C71.5336 80.477 73.0082 80.0819 74.3083 79.3315C75.6083 78.581 76.6879 77.5015 77.4385 76.2016L79.1031 73.3227C79.3026 72.9767 79.4776 72.6172 79.6268 72.2467L79.6354 72.2257C79.2605 72.1634 78.8812 72.1315 78.5012 72.1303C76.0105 72.1303 75.0767 72.9593 73.994 73.9179" fill="#006BFF"/>
<path d="M69.2909 63.8435H67.8791C65.2787 63.8435 63.5703 65.7008 63.5703 68.0779V70.0095C63.5703 72.3866 65.2787 74.2439 67.8791 74.2439H69.2909C73.0797 74.2439 72.7821 70.3806 78.5036 70.3806C79.0457 70.38 79.5867 70.4298 80.1195 70.5294C80.2931 69.5465 80.2931 68.5409 80.1195 67.558C79.5866 67.6571 79.0457 67.7069 78.5036 67.7068C72.7802 67.7068 73.0797 63.8435 69.2909 63.8435" fill="#006BFF"/>
<path d="M83.405 71.9396C82.4307 71.226 81.307 70.7429 80.1188 70.5268C80.1188 70.5373 80.1188 70.5459 80.1188 70.5555C80.0165 71.125 79.8567 71.6827 79.6418 72.22C80.6234 72.372 81.5547 72.7556 82.3585 73.3389C82.3585 73.3466 82.3538 73.3561 82.3509 73.3647C81.3163 76.715 79.1142 79.583 76.1448 81.4478C73.1753 83.3125 69.6355 84.0503 66.1684 83.5272C62.7012 83.004 59.5367 81.2545 57.2498 78.5965C54.9628 75.9386 53.7051 72.5485 53.7051 69.0421C53.7051 65.5357 54.9628 62.1456 57.2498 59.4876C59.5367 56.8297 62.7012 55.0802 66.1684 54.557C69.6355 54.0338 73.1753 54.7716 76.1448 56.6364C79.1142 58.5012 81.3163 61.3692 82.3509 64.7195C82.3509 64.7281 82.3557 64.7376 82.3585 64.7452C81.5548 65.3287 80.6234 65.712 79.6418 65.8632C79.8565 66.4013 80.0162 66.9596 80.1188 67.5297C80.1183 67.5386 80.1183 67.5475 80.1188 67.5564C81.3069 67.3407 82.4306 66.8579 83.405 66.1446C84.3417 65.4511 84.1605 64.668 84.0183 64.2044C82.8602 60.448 80.3929 57.2318 77.0647 55.1402C73.7366 53.0485 69.7685 52.2202 65.8815 52.8058C61.9946 53.3914 58.4467 55.3521 55.8825 58.3315C53.3184 61.3108 51.9082 65.1113 51.9082 69.0421C51.9082 72.9729 53.3184 76.7733 55.8825 79.7527C58.4467 82.7321 61.9946 84.6927 65.8815 85.2784C69.7685 85.864 73.7366 85.0357 77.0647 82.944C80.3929 80.8524 82.8602 77.6362 84.0183 73.8798C84.1605 73.4162 84.3417 72.6331 83.405 71.9396Z" fill="#006BFF"/>
<path d="M79.6363 65.8638C79.2614 65.9261 78.8821 65.958 78.5021 65.9592C76.0114 65.9592 75.0776 65.1303 73.9959 64.1716C72.9523 63.2463 71.6531 62.095 69.2893 62.095H67.8775C66.1681 62.095 64.6152 62.716 63.5029 63.8416C62.4165 64.9414 61.8184 66.4467 61.8184 68.0807V70.0123C61.8184 71.6464 62.4165 73.1516 63.5029 74.2515C64.6152 75.3771 66.1681 75.9971 67.8775 75.9971H69.2893C71.6531 75.9971 72.9523 74.8467 73.9959 73.9214C75.0776 72.9675 76.0114 72.1338 78.5021 72.1338C78.8819 72.1339 79.2612 72.1642 79.6363 72.2244C79.8516 71.6873 80.0114 71.1295 80.1132 70.5599C80.1138 70.5504 80.1138 70.5408 80.1132 70.5313C79.5803 70.4325 79.0393 70.383 78.4973 70.3834C72.7739 70.3834 73.0734 74.2477 69.2845 74.2477H67.8728C65.2724 74.2477 63.564 72.3895 63.564 70.0123V68.0769C63.564 65.6998 65.2724 63.8425 67.8728 63.8425H69.2845C73.0734 63.8425 72.7758 67.7049 78.4973 67.7049C79.0394 67.7058 79.5803 67.6563 80.1132 67.557C80.1132 67.5484 80.1132 67.5398 80.1132 67.5303C80.0107 66.9602 79.8509 66.4019 79.6363 65.8638Z" fill="#0AE8F0"/>
<path d="M79.6363 65.8638C79.2614 65.9261 78.8821 65.958 78.5021 65.9592C76.0114 65.9592 75.0776 65.1303 73.9959 64.1716C72.9523 63.2463 71.6531 62.095 69.2893 62.095H67.8775C66.1681 62.095 64.6152 62.716 63.5029 63.8416C62.4165 64.9414 61.8184 66.4467 61.8184 68.0807V70.0123C61.8184 71.6464 62.4165 73.1516 63.5029 74.2515C64.6152 75.3771 66.1681 75.9971 67.8775 75.9971H69.2893C71.6531 75.9971 72.9523 74.8467 73.9959 73.9214C75.0776 72.9675 76.0114 72.1338 78.5021 72.1338C78.8819 72.1339 79.2612 72.1642 79.6363 72.2244C79.8516 71.6873 80.0114 71.1295 80.1132 70.5599C80.1138 70.5504 80.1138 70.5408 80.1132 70.5313C79.5803 70.4325 79.0393 70.383 78.4973 70.3834C72.7739 70.3834 73.0734 74.2477 69.2845 74.2477H67.8728C65.2724 74.2477 63.564 72.3895 63.564 70.0123V68.0769C63.564 65.6998 65.2724 63.8425 67.8728 63.8425H69.2845C73.0734 63.8425 72.7758 67.7049 78.4973 67.7049C79.0394 67.7058 79.5803 67.6563 80.1132 67.557C80.1132 67.5484 80.1132 67.5398 80.1132 67.5303C80.0107 66.9602 79.8509 66.4019 79.6363 65.8638Z" fill="#0AE8F0"/>
<g filter="url(#filter1_d_234_67396)">
<path fill-rule="evenodd" clip-rule="evenodd" d="M334.169 69.7195V82.3203C334.169 85.951 332.714 88.6741 329.7 90.4361C322.425 94.6541 315.046 98.9256 307.771 103.144C304.601 104.906 301.431 105.012 298.21 103.144C290.935 98.9256 283.556 94.7609 276.28 90.5429C273.37 88.7809 271.656 86.2714 271.656 82.8008C271.552 74.0444 271.656 65.0743 271.656 56.2644C271.656 52.6337 273.63 50.1776 276.644 48.4156C283.711 44.3043 290.935 40.2999 297.898 36.0818C301.328 34.0529 304.809 34.213 308.083 36.1886C315.098 40.2999 322.061 44.3043 329.077 48.2554C332.506 50.2844 334.273 53.1142 334.065 57.2255C334.065 61.2834 334.169 65.5014 334.169 69.7195Z" fill="white"/>
</g>
<path fill-rule="evenodd" clip-rule="evenodd" d="M288.437 63.2627H288.182V63.5199V66.308V66.5652H288.437H292.341V77.2646V77.5217H292.596H295.599H295.855V77.2646V66.5652H299.758H300.014V66.308V63.5199V63.2627H299.758H288.437V63.2627Z" fill="#004392"/>
<path fill-rule="evenodd" clip-rule="evenodd" d="M304.133 63.262H309.716C314.07 63.262 317.231 66.2583 317.231 70.3894C317.231 74.5206 314.07 77.521 309.716 77.521H304.133V63.262ZM307.647 74.2836H309.717V74.2755C312.025 74.2755 313.576 72.7324 313.576 70.4096C313.576 68.0869 312.025 66.5275 309.717 66.5275H307.647V74.2836Z" fill="#004392"/>
<path fill-rule="evenodd" clip-rule="evenodd" d="M315.421 53.4971C317.077 53.4971 318.419 52.1464 318.419 50.4803C318.419 48.8143 317.077 47.4636 315.421 47.4636C313.764 47.4636 312.422 48.8143 312.422 50.4803C312.422 52.1464 313.764 53.4971 315.421 53.4971Z" fill="#004392"/>
<path fill-rule="evenodd" clip-rule="evenodd" d="M324.38 53.1216L321.99 51.7336C321.74 52.3752 321.399 52.9763 320.975 53.5175L323.357 54.9014C324.492 55.5635 325.192 56.7821 325.195 58.1018V80.0068C325.193 81.3268 324.492 82.5458 323.357 83.2072L304.501 94.1597C303.363 94.8187 301.962 94.8187 300.824 94.1597L281.968 83.2072C280.827 82.5499 280.12 81.3301 280.114 80.0068V58.1018C280.117 56.7821 280.817 55.5635 281.952 54.9014L300.808 43.9489C301.946 43.2899 303.347 43.2899 304.485 43.9489L308.899 46.5003C309.155 45.8625 309.504 45.2668 309.934 44.7327L305.523 42.1691C303.754 41.1442 301.576 41.1442 299.806 42.1691L280.95 53.1216C279.19 54.1553 278.108 56.0517 278.109 58.1018V80.0068C278.113 82.0611 279.202 83.9584 280.97 84.987L299.826 95.9395C301.596 96.9628 303.774 96.9628 305.544 95.9395L324.4 84.987C326.159 83.9526 327.24 82.0567 327.24 80.0068V58.1018C327.236 56.0477 326.147 54.1508 324.38 53.1216Z" fill="#1976D3"/>
<g filter="url(#filter2_d_234_67396)">
<path fill-rule="evenodd" clip-rule="evenodd" d="M177.308 69.7198V82.3206C177.308 85.9513 175.853 88.6743 172.839 90.4363C165.564 94.6544 158.185 98.9258 150.91 103.144C147.74 104.906 144.57 105.013 141.348 103.144C134.073 98.9258 126.694 94.7612 119.419 90.5431C116.509 88.7811 114.794 86.2717 114.794 82.8011C114.69 74.0446 114.794 65.0745 114.794 56.2647C114.794 52.6339 116.769 50.1778 119.783 48.4159C126.85 44.3046 134.073 40.3001 141.036 36.082C144.466 34.0531 147.948 34.2133 151.222 36.1888C158.237 40.3001 165.2 44.3046 172.215 48.2557C175.645 50.2846 177.412 53.1145 177.204 57.2257C177.204 61.2836 177.308 65.5017 177.308 69.7198Z" fill="white"/>
</g>
<g clip-path="url(#clip0_234_67396)">
<path d="M154.184 66.9154C154.428 66.8883 154.658 66.8883 154.875 66.9154C154.997 66.6309 155.024 66.1432 154.902 65.6148C154.74 64.8291 154.509 64.3413 154.049 64.4226C153.588 64.4904 153.574 65.0729 153.737 65.8587C153.832 66.2922 154.008 66.6715 154.184 66.9154Z" fill="black"/>
<path d="M150.229 67.5387C150.554 67.6877 150.757 67.7825 150.839 67.7012C150.893 67.647 150.879 67.5522 150.798 67.4167C150.636 67.1458 150.297 66.8748 149.945 66.7258C149.213 66.4142 148.346 66.5226 147.682 66.9968C147.465 67.1593 147.249 67.3896 147.276 67.5251C147.289 67.5658 147.316 67.6064 147.398 67.6064C147.574 67.6335 148.211 67.3084 148.956 67.2542C149.47 67.2271 149.89 67.3896 150.229 67.5387Z" fill="black"/>
<path d="M149.564 67.9181C149.131 67.9858 148.9 68.1213 148.738 68.2568C148.602 68.3652 148.521 68.5006 148.535 68.5819C148.535 68.6226 148.548 68.6497 148.562 68.6632C148.575 68.6768 148.602 68.6903 148.63 68.6903C148.724 68.6903 148.941 68.609 148.941 68.609C149.537 68.3923 149.93 68.4194 150.323 68.46C150.54 68.4871 150.648 68.5006 150.689 68.4194C150.702 68.3923 150.716 68.3516 150.675 68.2839C150.58 68.1213 150.147 67.8368 149.564 67.9181Z" fill="black"/>
<path d="M152.844 69.3005C153.142 69.4495 153.453 69.3817 153.562 69.1785C153.67 68.9618 153.521 68.6773 153.223 68.5283C152.925 68.3792 152.613 68.447 152.505 68.6502C152.41 68.8669 152.559 69.165 152.844 69.3005Z" fill="black"/>
<path d="M154.726 67.6604C154.483 67.6604 154.293 67.9178 154.293 68.2429C154.293 68.5681 154.469 68.839 154.713 68.839C154.957 68.839 155.146 68.5816 155.146 68.2565C155.146 67.9313 154.97 67.6739 154.726 67.6604Z" fill="black"/>
<path d="M138.794 73.5261C138.74 73.4584 138.632 73.4719 138.551 73.499C138.483 73.5125 138.415 73.5261 138.334 73.5261C138.158 73.5261 138.009 73.4448 137.927 73.3229C137.819 73.1603 137.819 72.9029 137.941 72.632C137.955 72.5913 137.982 72.5507 137.995 72.51C138.185 72.0765 138.51 71.3721 138.144 70.6811C137.873 70.1663 137.44 69.8547 136.911 69.787C136.41 69.7193 135.882 69.9089 135.557 70.2747C135.028 70.8572 134.947 71.643 135.055 71.9139C135.096 72.0223 135.15 72.0494 135.191 72.0494C135.286 72.063 135.408 71.9952 135.489 71.7785C135.489 71.7649 135.502 71.7378 135.516 71.7107C135.557 71.5888 135.624 71.372 135.733 71.1959C135.868 70.9792 136.085 70.8437 136.329 70.7895C136.586 70.7353 136.844 70.7895 137.06 70.925C137.426 71.1688 137.575 71.6159 137.413 72.0494C137.331 72.2662 137.196 72.6997 137.223 73.0519C137.277 73.7564 137.711 74.0409 138.104 74.068C138.483 74.0815 138.754 73.8648 138.822 73.7158C138.849 73.6074 138.808 73.5532 138.794 73.5261Z" fill="black"/>
<path d="M142.398 60.5487C143.644 59.1127 145.162 57.8663 146.53 57.1754C146.571 57.1483 146.625 57.2025 146.598 57.2432C146.489 57.4464 146.286 57.8663 146.218 58.1779C146.205 58.2321 146.259 58.2592 146.3 58.2321C147.153 57.6496 148.63 57.0264 149.93 56.9587C149.985 56.9587 150.012 57.0264 149.971 57.067C149.768 57.2161 149.565 57.4328 149.402 57.636C149.375 57.6767 149.402 57.7173 149.443 57.7309C150.35 57.7309 151.637 58.056 152.477 58.5302C152.532 58.5573 152.491 58.6656 152.437 58.6521C151.177 58.3676 149.104 58.1373 146.95 58.6656C145.026 59.1398 143.563 59.8578 142.493 60.63C142.425 60.6707 142.357 60.6029 142.398 60.5487ZM153.683 75.0174C153.724 75.0038 153.751 74.9632 153.737 74.9225C153.737 74.8684 153.683 74.8277 153.629 74.8413C153.629 74.8413 150.987 75.2341 148.494 74.3129C148.765 73.4323 149.483 73.7439 150.581 73.8388C152.545 73.9607 154.32 73.6626 155.62 73.2969C156.745 72.9717 158.235 72.335 159.387 71.4273C159.779 72.2808 159.915 73.2291 159.915 73.2291C159.915 73.2291 160.213 73.1749 160.47 73.324C160.714 73.473 160.877 73.771 160.768 74.5568C160.525 76.0334 159.901 77.2256 158.845 78.323C158.208 79.0139 157.436 79.61 156.542 80.0435C156.067 80.2873 155.566 80.5041 155.038 80.6802C151.082 81.9672 147.031 80.5583 145.717 77.4966C145.609 77.2663 145.528 77.0224 145.46 76.7785C144.904 74.7735 145.379 72.3485 146.855 70.8312C146.95 70.7364 147.045 70.6145 147.045 70.479C147.045 70.3571 146.964 70.2351 146.909 70.1403C146.395 69.3952 144.606 68.1082 144.959 65.6426C145.216 63.8678 146.774 62.6215 148.223 62.6892C148.345 62.6892 148.467 62.7028 148.589 62.7163C149.212 62.757 149.768 62.8382 150.283 62.8518C151.15 62.8924 151.922 62.757 152.843 61.9983C153.155 61.7409 153.399 61.5106 153.819 61.4429C153.859 61.4293 153.968 61.4022 154.198 61.4022C154.428 61.4158 154.631 61.47 154.835 61.6054C155.566 62.0931 155.675 63.2853 155.715 64.1523C155.742 64.6536 155.797 65.8458 155.824 66.198C155.864 66.9838 156.081 67.0921 156.501 67.2412C156.731 67.3224 156.962 67.3766 157.273 67.4715C158.249 67.7424 158.831 68.0269 159.197 68.3791C159.414 68.5959 159.522 68.8398 159.549 69.0701C159.671 69.91 158.899 70.9532 156.867 71.8879C154.645 72.9175 151.949 73.1749 150.093 72.9717C149.944 72.9582 149.443 72.904 149.443 72.904C147.953 72.7008 147.099 74.6245 147.993 75.9522C148.576 76.8056 150.134 77.3611 151.705 77.3611C155.309 77.3611 158.072 75.8302 159.102 74.5026C159.129 74.4619 159.129 74.4619 159.183 74.3807C159.238 74.2994 159.197 74.2587 159.129 74.2994C158.289 74.8684 154.55 77.1579 150.554 76.467C150.554 76.467 150.066 76.3857 149.619 76.2096C149.267 76.0741 148.535 75.7354 148.44 74.9767C151.651 75.9657 153.683 75.0174 153.683 75.0174ZM135.963 67.3495C134.839 67.5663 133.85 68.203 133.254 69.0836C132.888 68.7856 132.224 68.203 132.102 67.9727C131.14 66.1438 133.159 62.5808 134.568 60.5623C138.049 55.5904 143.509 51.8242 146.042 52.5151C146.449 52.637 147.817 54.2085 147.817 54.2085C147.817 54.2085 145.297 55.6039 142.954 57.5683C139.783 59.9933 137.399 63.5292 135.963 67.3495ZM137.846 75.7625C137.67 75.7896 137.507 75.8031 137.331 75.8031C135.651 75.7489 133.823 74.2316 133.646 72.4298C133.443 70.4384 134.459 68.9075 136.261 68.5417C136.478 68.5011 136.735 68.474 137.02 68.4875C138.036 68.5417 139.512 69.3139 139.851 71.5221C140.149 73.473 139.675 75.4509 137.846 75.7625ZM160.714 72.2402C160.701 72.186 160.606 71.8473 160.47 71.4273C160.335 71.0073 160.213 70.7228 160.213 70.7228C160.728 69.9506 160.741 69.2462 160.674 68.8533C160.606 68.3656 160.403 67.9456 159.983 67.5257C159.576 67.0921 158.736 66.6586 157.558 66.3199C157.422 66.2793 156.975 66.1574 156.934 66.1438C156.934 66.1167 156.907 64.6942 156.88 64.0711C156.867 63.624 156.826 62.9331 156.609 62.2557C156.352 61.3345 155.905 60.5216 155.349 60.0068C156.88 58.4082 157.842 56.6606 157.842 55.1569C157.842 52.2577 154.279 51.3771 149.903 53.1925C149.903 53.1925 148.982 53.5853 148.969 53.5853C148.969 53.5853 147.289 51.9326 147.262 51.919C142.276 47.5703 126.642 64.9381 131.641 69.1513L132.739 70.0726C132.454 70.8041 132.346 71.6441 132.441 72.5517C132.563 73.7168 133.159 74.8277 134.121 75.6812C135.042 76.4941 136.248 77.0089 137.426 77.0089C139.377 81.4931 143.807 84.2432 149.023 84.3922C154.604 84.5548 159.305 81.9401 161.27 77.2256C161.392 76.9005 161.947 75.4103 161.947 74.0962C161.933 72.7821 161.188 72.2402 160.714 72.2402Z" fill="black"/>
</g>
<g filter="url(#filter3_d_234_67396)">
<path fill-rule="evenodd" clip-rule="evenodd" d="M255.738 68.7012V81.302C255.738 84.9327 254.283 87.6558 251.269 89.4178C243.994 93.6358 236.615 97.9073 229.34 102.125C226.17 103.887 223 103.994 219.778 102.125C212.503 97.9073 205.124 93.7426 197.849 89.5246C194.939 87.7626 193.224 85.2531 193.224 81.7825C193.12 73.0261 193.224 64.056 193.224 55.2461C193.224 51.6154 195.199 49.1593 198.213 47.3973C205.28 43.286 212.503 39.2815 219.466 35.0635C222.896 33.0345 226.378 33.1947 229.651 35.1703C236.667 39.2815 243.63 43.286 250.645 47.2371C254.075 49.2661 255.842 52.0959 255.634 56.2072C255.634 60.2651 255.738 64.4831 255.738 68.7012Z" fill="white"/>
</g>
<path d="M236.506 59.484L231.127 53.9985L227.443 50.2222H227.43V50.209V50.2222H214.577C213.517 50.2222 212.656 51.0702 212.656 52.1302V81.4789C212.656 82.5389 213.517 83.4002 214.577 83.4002H234.585C235.645 83.4002 236.506 82.5389 236.506 81.4789V59.484ZM228.887 53.7865L230.093 55.0187L233.035 58.0265H229.351C229.099 58.0265 228.887 57.8145 228.887 57.5627V53.7865ZM235.049 60.0935V81.4789C235.049 81.7307 234.837 81.9427 234.585 81.9427H214.577C214.326 81.9427 214.114 81.7307 214.114 81.4789V52.1302C214.114 51.8785 214.326 51.6665 214.577 51.6665H226.834L227.43 52.276V57.5627C227.43 58.6227 228.291 59.484 229.351 59.484H234.466L235.049 60.0935Z" fill="#0E9D57"/>
<path fill-rule="evenodd" clip-rule="evenodd" d="M230.781 77.2655H218.379V66.5198H230.781V77.2655ZM225.348 68.0568V69.978H229.244V68.0568H225.348ZM225.348 71.1308V72.9195H229.244V71.1308H225.348ZM225.348 74.0723V75.7285H229.244V74.0723H225.348ZM223.811 75.7285V74.0723H219.916V75.7285H223.811ZM223.811 72.9195V71.1308H219.916V72.9195H223.811ZM223.811 69.978V68.0568H219.916V69.978H223.811Z" fill="#0E9D57"/>
<path d="M538.512 74.3935C538.378 74.3943 538.244 74.3685 538.12 74.3176C537.995 74.2667 537.882 74.1918 537.786 74.097L531.65 67.9611C531.458 67.7686 531.35 67.5074 531.35 67.2351C531.35 66.9627 531.458 66.7016 531.65 66.509C531.843 66.3164 532.104 66.2083 532.376 66.2083C532.649 66.2083 532.91 66.3164 533.103 66.509L538.512 71.929L543.922 66.5192C544.118 66.3517 544.369 66.2641 544.627 66.2741C544.884 66.284 545.128 66.3907 545.31 66.5729C545.492 66.755 545.599 66.9991 545.609 67.2565C545.619 67.5139 545.531 67.7655 545.364 67.9611L539.228 74.097C539.038 74.2859 538.781 74.3924 538.512 74.3935Z" fill="black"/>
<path d="M364.24 74.9666L362.215 64.0542H364.742L365.496 69.1589C365.646 70.297 365.797 71.4518 365.947 72.6067H366.014C366.215 71.4518 366.433 70.297 366.65 69.1589L367.822 64.0542H369.914L371.102 69.1589C371.32 70.2635 371.538 71.4351 371.755 72.6067H371.822C371.956 71.4351 372.107 70.2803 372.257 69.1589L373.01 64.0542H375.37L373.429 74.9666H370.332L369.261 70.0125C369.094 69.1756 368.943 68.2886 368.826 67.4852H368.759C368.625 68.2886 368.491 69.1756 368.324 70.0125L367.286 74.9666H364.24ZM377.09 74.9666V63.2341H379.55V66.1128L379.433 67.6024C380.053 67.0501 380.873 66.4643 381.994 66.4643C383.802 66.4643 384.571 67.7363 384.571 69.8116V74.9666H382.111V70.1296C382.111 68.9246 381.793 68.5564 381.09 68.5564C380.471 68.5564 380.086 68.8409 379.55 69.3597V74.9666H377.09ZM386.589 70.8158C386.589 68.1212 388.513 66.4643 390.505 66.4643C392.865 66.4643 394.037 68.1882 394.037 70.4476C394.037 70.8828 393.986 71.2845 393.936 71.4853H388.965C389.183 72.7406 390.02 73.2929 391.124 73.2929C391.744 73.2929 392.313 73.1088 392.915 72.7406L393.735 74.2301C392.882 74.8159 391.777 75.1674 390.79 75.1674C388.413 75.1674 386.589 73.5607 386.589 70.8158ZM388.949 69.9623H391.944C391.944 69.0083 391.543 68.3388 390.555 68.3388C389.785 68.3388 389.116 68.8576 388.949 69.9623ZM396.159 74.9666V66.6651H398.167L398.335 67.7195H398.402C399.105 67.0501 399.942 66.4643 401.063 66.4643C402.87 66.4643 403.64 67.7363 403.64 69.8116V74.9666H401.18V70.1296C401.18 68.9246 400.862 68.5564 400.159 68.5564C399.54 68.5564 399.155 68.8409 398.619 69.3597V74.9666H396.159ZM410.398 71.9539V68.5899H409.26V66.7655L410.532 66.6651L410.816 64.4559H412.858V66.6651H414.85V68.5899H412.858V71.9205C412.858 72.8577 413.277 73.2427 413.929 73.2427C414.197 73.2427 414.498 73.159 414.716 73.0753L415.101 74.8661C414.666 75 414.063 75.1674 413.26 75.1674C411.201 75.1674 410.398 73.8787 410.398 71.9539ZM416.892 74.9666V63.2341H419.353V66.1128L419.236 67.6024C419.855 67.0501 420.675 66.4643 421.796 66.4643C423.604 66.4643 424.374 67.7363 424.374 69.8116V74.9666H421.914V70.1296C421.914 68.9246 421.596 68.5564 420.893 68.5564C420.273 68.5564 419.888 68.8409 419.353 69.3597V74.9666H416.892ZM428.098 65.4433C427.278 65.4433 426.676 64.9078 426.676 64.1546C426.676 63.4015 427.278 62.8826 428.098 62.8826C428.935 62.8826 429.521 63.4015 429.521 64.1546C429.521 64.9078 428.935 65.4433 428.098 65.4433ZM426.876 74.9666V66.6651H429.337V74.9666H426.876ZM431.188 74.0126L432.293 72.4728C433.046 73.0418 433.732 73.3431 434.435 73.3431C435.171 73.3431 435.489 73.0753 435.489 72.6401C435.489 72.0878 434.652 71.8368 433.799 71.502C432.795 71.1171 431.606 70.4309 431.606 69.0585C431.606 67.5187 432.862 66.4643 434.786 66.4643C436.058 66.4643 436.996 66.9831 437.715 67.5187L436.611 68.9915C436.008 68.5564 435.439 68.2886 434.853 68.2886C434.217 68.2886 433.916 68.5229 433.916 68.9413C433.916 69.4769 434.686 69.6777 435.539 69.9957C436.594 70.3807 437.782 70.9665 437.782 72.4895C437.782 73.9958 436.594 75.1674 434.368 75.1674C433.28 75.1674 432.025 74.6988 431.188 74.0126ZM443.671 74.9666V63.2341H446.131V66.1128L446.014 67.6024C446.633 67.0501 447.453 66.4643 448.575 66.4643C450.382 66.4643 451.152 67.7363 451.152 69.8116V74.9666H448.692V70.1296C448.692 68.9246 448.374 68.5564 447.671 68.5564C447.052 68.5564 446.667 68.8409 446.131 69.3597V74.9666H443.671ZM453.354 72.6569C453.354 70.9163 454.743 69.9623 458.023 69.6275C457.973 68.8911 457.605 68.4225 456.718 68.4225C456.015 68.4225 455.312 68.707 454.508 69.1756L453.638 67.5522C454.692 66.9162 455.881 66.4643 457.186 66.4643C459.312 66.4643 460.483 67.6693 460.483 70.2133V74.9666H458.475L458.291 74.113H458.241C457.538 74.7322 456.751 75.1674 455.814 75.1674C454.308 75.1674 453.354 74.0628 453.354 72.6569ZM455.697 72.4728C455.697 73.0084 456.065 73.2594 456.651 73.2594C457.22 73.2594 457.588 72.9916 458.023 72.5565V71.1004C456.266 71.3347 455.697 71.8368 455.697 72.4728ZM465.394 74.2971L465.478 75.6193V78.0461H463.018V66.6651H465.026L465.193 67.4852H465.26C465.913 66.8994 466.75 66.4643 467.62 66.4643C469.629 66.4643 470.867 68.1212 470.867 70.6819C470.867 73.5272 469.16 75.1674 467.369 75.1674C466.649 75.1674 465.98 74.8494 465.394 74.2971ZM465.478 72.6234C465.913 73.0251 466.382 73.159 466.8 73.159C467.654 73.159 468.34 72.4226 468.34 70.7154C468.34 69.2258 467.888 68.4727 466.901 68.4727C466.398 68.4727 465.963 68.707 465.478 69.2258V72.6234ZM475.411 74.2971L475.495 75.6193V78.0461H473.034V66.6651H475.043L475.21 67.4852H475.277C475.93 66.8994 476.767 66.4643 477.637 66.4643C479.645 66.4643 480.884 68.1212 480.884 70.6819C480.884 73.5272 479.177 75.1674 477.386 75.1674C476.666 75.1674 475.997 74.8494 475.411 74.2971ZM475.495 72.6234C475.93 73.0251 476.398 73.159 476.817 73.159C477.67 73.159 478.357 72.4226 478.357 70.7154C478.357 69.2258 477.905 68.4727 476.917 68.4727C476.415 68.4727 475.98 68.707 475.495 69.2258V72.6234ZM482.565 70.8158C482.565 68.1212 484.49 66.4643 486.482 66.4643C488.842 66.4643 490.013 68.1882 490.013 70.4476C490.013 70.8828 489.963 71.2845 489.913 71.4853H484.942C485.16 72.7406 485.997 73.2929 487.101 73.2929C487.72 73.2929 488.289 73.1088 488.892 72.7406L489.712 74.2301C488.858 74.8159 487.754 75.1674 486.766 75.1674C484.39 75.1674 482.565 73.5607 482.565 70.8158ZM484.925 69.9623H487.921C487.921 69.0083 487.52 68.3388 486.532 68.3388C485.762 68.3388 485.093 68.8576 484.925 69.9623ZM492.136 74.9666V66.6651H494.144L494.312 67.7195H494.379C495.081 67.0501 495.918 66.4643 497.04 66.4643C498.847 66.4643 499.617 67.7363 499.617 69.8116V74.9666H497.157V70.1296C497.157 68.9246 496.839 68.5564 496.136 68.5564C495.517 68.5564 495.132 68.8409 494.596 69.3597V74.9666H492.136ZM501.4 74.0126L502.504 72.4728C503.257 73.0418 503.944 73.3431 504.647 73.3431C505.383 73.3431 505.701 73.0753 505.701 72.6401C505.701 72.0878 504.864 71.8368 504.011 71.502C503.006 71.1171 501.818 70.4309 501.818 69.0585C501.818 67.5187 503.073 66.4643 504.998 66.4643C506.27 66.4643 507.207 66.9831 507.927 67.5187L506.822 68.9915C506.22 68.5564 505.651 68.2886 505.065 68.2886C504.429 68.2886 504.128 68.5229 504.128 68.9413C504.128 69.4769 504.898 69.6777 505.751 69.9957C506.806 70.3807 507.994 70.9665 507.994 72.4895C507.994 73.9958 506.806 75.1674 504.58 75.1674C503.492 75.1674 502.236 74.6988 501.4 74.0126ZM509.912 73.6276C509.912 72.7406 510.548 72.0711 511.402 72.0711C512.255 72.0711 512.891 72.7406 512.891 73.6276C512.891 74.4979 512.255 75.1674 511.402 75.1674C510.548 75.1674 509.912 74.4979 509.912 73.6276ZM515.352 73.6276C515.352 72.7406 515.988 72.0711 516.842 72.0711C517.695 72.0711 518.331 72.7406 518.331 73.6276C518.331 74.4979 517.695 75.1674 516.842 75.1674C515.988 75.1674 515.352 74.4979 515.352 73.6276ZM520.792 73.6276C520.792 72.7406 521.428 72.0711 522.282 72.0711C523.135 72.0711 523.771 72.7406 523.771 73.6276C523.771 74.4979 523.135 75.1674 522.282 75.1674C521.428 75.1674 520.792 74.4979 520.792 73.6276Z" fill="black"/>
<rect x="19" y="17.3159" width="543.926" height="103.896" rx="4.78193" stroke="#1976D3" stroke-width="0.796988"/>
<rect x="37.334" y="15.2788" width="132.416" height="3.05576" fill="#F3F8FD"/>
<path d="M54.1828 16.0642C54.1828 13.424 55.9307 11.8839 57.9842 11.8839C58.9743 11.8839 59.8055 12.3728 60.3433 12.9229L59.3532 14.0352C58.9498 13.6685 58.5709 13.4362 58.0087 13.4362C56.8964 13.4362 56.0285 14.4018 56.0285 16.0031C56.0285 17.641 56.7986 18.5943 57.9598 18.5943C58.6198 18.5943 59.0843 18.3132 59.4754 17.8854L60.4655 18.9733C59.8055 19.7433 58.9254 20.1467 57.9353 20.1467C55.8696 20.1467 54.1828 18.741 54.1828 16.0642ZM61.94 20V11.4316H63.7368V13.534L63.6513 14.6219C64.1035 14.2185 64.7024 13.7907 65.5214 13.7907C66.8415 13.7907 67.4037 14.7196 67.4037 16.2353V20H65.607V16.4675C65.607 15.5875 65.3747 15.3186 64.8613 15.3186C64.4091 15.3186 64.128 15.5264 63.7368 15.9053V20H61.94ZM68.9909 16.9687C68.9909 14.9519 70.4087 13.7907 71.9488 13.7907C73.4767 13.7907 74.8946 14.9519 74.8946 16.9687C74.8946 18.9855 73.4767 20.1467 71.9488 20.1467C70.4087 20.1467 68.9909 18.9855 68.9909 16.9687ZM70.8365 16.9687C70.8365 18.0199 71.2032 18.6921 71.9488 18.6921C72.6822 18.6921 73.0611 18.0199 73.0611 16.9687C73.0611 15.9175 72.6822 15.2452 71.9488 15.2452C71.2032 15.2452 70.8365 15.9175 70.8365 16.9687ZM76.1932 16.9687C76.1932 14.9519 77.6111 13.7907 79.1512 13.7907C80.6791 13.7907 82.097 14.9519 82.097 16.9687C82.097 18.9855 80.6791 20.1467 79.1512 20.1467C77.6111 20.1467 76.1932 18.9855 76.1932 16.9687ZM78.0389 16.9687C78.0389 18.0199 78.4056 18.6921 79.1512 18.6921C79.8846 18.6921 80.2635 18.0199 80.2635 16.9687C80.2635 15.9175 79.8846 15.2452 79.1512 15.2452C78.4056 15.2452 78.0389 15.9175 78.0389 16.9687ZM83.1526 19.3033L83.9593 18.1788C84.5093 18.5943 85.0105 18.8144 85.5239 18.8144C86.0617 18.8144 86.2939 18.6188 86.2939 18.301C86.2939 17.8976 85.6828 17.7143 85.0594 17.4698C84.326 17.1887 83.4582 16.6876 83.4582 15.6853C83.4582 14.5607 84.3749 13.7907 85.7805 13.7907C86.7095 13.7907 87.394 14.1696 87.9196 14.5607L87.1129 15.6364C86.6728 15.3186 86.2572 15.123 85.8294 15.123C85.365 15.123 85.1449 15.2941 85.1449 15.5997C85.1449 15.9908 85.7072 16.1375 86.3306 16.3698C87.1006 16.6509 87.9685 17.0787 87.9685 18.191C87.9685 19.2911 87.1006 20.1467 85.475 20.1467C84.6805 20.1467 83.7637 19.8044 83.1526 19.3033ZM89.1775 16.9687C89.1775 15.0008 90.5832 13.7907 92.0377 13.7907C93.7612 13.7907 94.6168 15.0497 94.6168 16.6998C94.6168 17.0176 94.5801 17.3109 94.5435 17.4576H90.9132C91.0721 18.3743 91.6833 18.7777 92.49 18.7777C92.9422 18.7777 93.3578 18.6432 93.7979 18.3743L94.3968 19.4622C93.7734 19.89 92.9667 20.1467 92.2455 20.1467C90.5099 20.1467 89.1775 18.9733 89.1775 16.9687ZM90.901 16.3453H93.0889C93.0889 15.6486 92.7956 15.1597 92.0744 15.1597C91.5121 15.1597 91.0232 15.5386 90.901 16.3453ZM99.0257 18.3132C99.0257 17.042 100.04 16.3453 102.436 16.1008C102.399 15.563 102.13 15.2208 101.483 15.2208C100.969 15.2208 100.456 15.4286 99.8691 15.7708L99.2335 14.5852C100.004 14.1207 100.871 13.7907 101.825 13.7907C103.377 13.7907 104.233 14.6708 104.233 16.5287V20H102.766L102.631 19.3766H102.595C102.081 19.8289 101.507 20.1467 100.822 20.1467C99.7224 20.1467 99.0257 19.34 99.0257 18.3132ZM100.737 18.1788C100.737 18.5699 101.006 18.7532 101.434 18.7532C101.849 18.7532 102.118 18.5577 102.436 18.2399V17.1765C101.152 17.3476 100.737 17.7143 100.737 18.1788ZM110.861 20V13.5462H108.661V12.0306H114.846V13.5462H112.658V20H110.861ZM115.851 20V13.9374H117.318L117.44 15.0008H117.489C117.929 14.1818 118.589 13.7907 119.213 13.7907C119.555 13.7907 119.763 13.8396 119.934 13.9129L119.641 15.4652C119.421 15.4041 119.237 15.3675 118.98 15.3675C118.528 15.3675 117.966 15.6608 117.648 16.4798V20H115.851ZM122.036 13.0451C121.437 13.0451 120.997 12.6539 120.997 12.1039C120.997 11.5539 121.437 11.175 122.036 11.175C122.647 11.175 123.075 11.5539 123.075 12.1039C123.075 12.6539 122.647 13.0451 122.036 13.0451ZM121.144 20V13.9374H122.941V20H121.144ZM126.044 20.7578C126.044 21.2101 126.582 21.4545 127.389 21.4545C128.196 21.4545 128.782 21.1245 128.782 20.7089C128.782 20.33 128.452 20.2322 127.853 20.2322H127.23C126.814 20.2322 126.57 20.2078 126.374 20.1589C126.154 20.3545 126.044 20.5378 126.044 20.7578ZM124.565 21.039C124.565 20.5378 124.871 20.1345 125.433 19.8167V19.7678C125.115 19.56 124.871 19.2422 124.871 18.741C124.871 18.301 125.164 17.8732 125.556 17.6043V17.5554C125.128 17.262 124.737 16.6876 124.737 15.9786C124.737 14.5241 125.934 13.7907 127.242 13.7907C127.585 13.7907 127.915 13.8396 128.183 13.9374H130.396V15.2452H129.43C129.54 15.4286 129.626 15.7219 129.626 16.0397C129.626 17.4332 128.575 18.081 127.242 18.081C127.022 18.081 126.778 18.0443 126.509 17.9588C126.35 18.0932 126.289 18.2032 126.289 18.411C126.289 18.7166 126.533 18.8633 127.206 18.8633H128.183C129.675 18.8633 130.494 19.3155 130.494 20.4034C130.494 21.6623 129.186 22.5791 127.108 22.5791C125.69 22.5791 124.565 22.1146 124.565 21.039ZM127.242 16.9931C127.719 16.9931 128.073 16.6509 128.073 15.9786C128.073 15.343 127.719 15.0008 127.242 15.0008C126.766 15.0008 126.411 15.3308 126.411 15.9786C126.411 16.6509 126.766 16.9931 127.242 16.9931ZM132.996 20.7578C132.996 21.2101 133.534 21.4545 134.341 21.4545C135.147 21.4545 135.734 21.1245 135.734 20.7089C135.734 20.33 135.404 20.2322 134.805 20.2322H134.182C133.766 20.2322 133.522 20.2078 133.326 20.1589C133.106 20.3545 132.996 20.5378 132.996 20.7578ZM131.517 21.039C131.517 20.5378 131.823 20.1345 132.385 19.8167V19.7678C132.067 19.56 131.823 19.2422 131.823 18.741C131.823 18.301 132.116 17.8732 132.507 17.6043V17.5554C132.079 17.262 131.688 16.6876 131.688 15.9786C131.688 14.5241 132.886 13.7907 134.194 13.7907C134.536 13.7907 134.866 13.8396 135.135 13.9374H137.348V15.2452H136.382C136.492 15.4286 136.578 15.7219 136.578 16.0397C136.578 17.4332 135.526 18.081 134.194 18.081C133.974 18.081 133.73 18.0443 133.461 17.9588C133.302 18.0932 133.241 18.2032 133.241 18.411C133.241 18.7166 133.485 18.8633 134.157 18.8633H135.135C136.626 18.8633 137.445 19.3155 137.445 20.4034C137.445 21.6623 136.137 22.5791 134.06 22.5791C132.642 22.5791 131.517 22.1146 131.517 21.039ZM134.194 16.9931C134.671 16.9931 135.025 16.6509 135.025 15.9786C135.025 15.343 134.671 15.0008 134.194 15.0008C133.717 15.0008 133.363 15.3308 133.363 15.9786C133.363 16.6509 133.717 16.9931 134.194 16.9931ZM138.278 16.9687C138.278 15.0008 139.684 13.7907 141.139 13.7907C142.862 13.7907 143.718 15.0497 143.718 16.6998C143.718 17.0176 143.681 17.3109 143.644 17.4576H140.014C140.173 18.3743 140.784 18.7777 141.591 18.7777C142.043 18.7777 142.459 18.6432 142.899 18.3743L143.498 19.4622C142.874 19.89 142.068 20.1467 141.346 20.1467C139.611 20.1467 138.278 18.9733 138.278 16.9687ZM140.002 16.3453H142.19C142.19 15.6486 141.896 15.1597 141.175 15.1597C140.613 15.1597 140.124 15.5386 140.002 16.3453ZM145.382 20V13.9374H146.848L146.971 15.0008H147.02C147.46 14.1818 148.12 13.7907 148.743 13.7907C149.085 13.7907 149.293 13.8396 149.464 13.9129L149.171 15.4652C148.951 15.4041 148.767 15.3675 148.511 15.3675C148.059 15.3675 147.496 15.6608 147.178 16.4798V20H145.382ZM150.625 15.0619C150.625 14.4141 151.09 13.9251 151.713 13.9251C152.337 13.9251 152.801 14.4141 152.801 15.0619C152.801 15.6975 152.337 16.1864 151.713 16.1864C151.09 16.1864 150.625 15.6975 150.625 15.0619ZM150.625 19.0222C150.625 18.3743 151.09 17.8854 151.713 17.8854C152.337 17.8854 152.801 18.3743 152.801 19.0222C152.801 19.6578 152.337 20.1467 151.713 20.1467C151.09 20.1467 150.625 19.6578 150.625 19.0222Z" fill="black"/>
<g filter="url(#filter4_d_234_67396)">
<path fill-rule="evenodd" clip-rule="evenodd" d="M98.8763 222.508V235.108C98.8763 238.739 97.4213 241.462 94.4074 243.224C87.1323 247.442 79.7533 251.714 72.4782 255.932C69.3083 257.694 66.1385 257.801 62.9166 255.932C55.6416 251.714 48.2626 247.549 40.9875 243.331C38.0774 241.569 36.3626 239.059 36.3626 235.589C36.2587 226.832 36.3626 217.862 36.3626 209.053C36.3626 205.422 38.3373 202.966 41.3512 201.204C48.4184 197.092 55.6416 193.088 62.6049 188.87C66.0345 186.841 69.5162 187.001 72.79 188.977C79.8052 193.088 86.7685 197.092 93.7838 201.044C97.2135 203.072 98.9803 205.902 98.7724 210.014C98.7724 214.071 98.8763 218.29 98.8763 222.508Z" fill="white"/>
</g>
<path d="M73.994 226.705C72.9514 227.63 71.6493 228.781 69.2884 228.781H67.8766C66.1682 228.781 64.6143 228.16 63.5021 227.035C62.4156 225.935 61.8175 224.43 61.8175 222.796V220.864C61.8175 219.23 62.4156 217.725 63.5021 216.625C64.6143 215.499 66.1682 214.879 67.8766 214.879H69.2884C71.6522 214.879 72.9514 216.03 73.994 216.955C75.0767 217.909 76.0105 218.743 78.5012 218.743C78.881 218.743 79.2603 218.712 79.6354 218.652L79.6268 218.63C79.4776 218.26 79.3026 217.9 79.1031 217.554L77.4385 214.67C76.6879 213.37 75.6083 212.291 74.3083 211.541C73.0082 210.79 71.5336 210.395 70.0325 210.395H66.7024C65.2013 210.395 63.7266 210.79 62.4266 211.541C61.1265 212.291 60.0469 213.37 59.2963 214.67L57.6317 217.554C56.8814 218.854 56.4863 220.329 56.4863 221.83C56.4863 223.331 56.8814 224.806 57.6317 226.106L59.2963 228.989C60.0469 230.289 61.1265 231.369 62.4266 232.119C63.7266 232.87 65.2013 233.265 66.7024 233.265H70.0325C71.5336 233.265 73.0082 232.87 74.3083 232.119C75.6083 231.369 76.6879 230.289 77.4385 228.989L79.1031 226.111C79.3026 225.765 79.4776 225.405 79.6268 225.035L79.6354 225.014C79.2605 224.951 78.8812 224.919 78.5012 224.918C76.0105 224.918 75.0767 225.747 73.994 226.706" fill="#006BFF"/>
<path d="M69.2909 216.632H67.8791C65.2787 216.632 63.5703 218.489 63.5703 220.866V222.798C63.5703 225.175 65.2787 227.032 67.8791 227.032H69.2909C73.0797 227.032 72.7821 223.169 78.5036 223.169C79.0457 223.168 79.5867 223.218 80.1195 223.317C80.2931 222.335 80.2931 221.329 80.1195 220.346C79.5866 220.445 79.0457 220.495 78.5036 220.495C72.7802 220.495 73.0797 216.632 69.2909 216.632" fill="#006BFF"/>
<path d="M83.405 224.728C82.4307 224.014 81.307 223.531 80.1188 223.315C80.1188 223.325 80.1188 223.334 80.1188 223.344C80.0165 223.913 79.8567 224.471 79.6418 225.008C80.6234 225.16 81.5547 225.544 82.3585 226.127C82.3585 226.135 82.3538 226.144 82.3509 226.153C81.3163 229.503 79.1142 232.371 76.1448 234.236C73.1753 236.101 69.6355 236.838 66.1684 236.315C62.7012 235.792 59.5367 234.043 57.2498 231.385C54.9628 228.727 53.7051 225.337 53.7051 221.83C53.7051 218.324 54.9628 214.934 57.2498 212.276C59.5367 209.618 62.7012 207.868 66.1684 207.345C69.6355 206.822 73.1753 207.56 76.1448 209.424C79.1142 211.289 81.3163 214.157 82.3509 217.508C82.3509 217.516 82.3557 217.526 82.3585 217.533C81.5548 218.117 80.6234 218.5 79.6418 218.651C79.8565 219.189 80.0162 219.748 80.1188 220.318C80.1183 220.327 80.1183 220.336 80.1188 220.344C81.3069 220.129 82.4306 219.646 83.405 218.933C84.3417 218.239 84.1605 217.456 84.0183 216.992C82.8602 213.236 80.3929 210.02 77.0647 207.928C73.7366 205.837 69.7685 205.008 65.8815 205.594C61.9946 206.18 58.4467 208.14 55.8825 211.12C53.3184 214.099 51.9082 217.899 51.9082 221.83C51.9082 225.761 53.3184 229.561 55.8825 232.541C58.4467 235.52 61.9946 237.481 65.8815 238.066C69.7685 238.652 73.7366 237.824 77.0647 235.732C80.3929 233.64 82.8602 230.424 84.0183 226.668C84.1605 226.204 84.3417 225.421 83.405 224.728Z" fill="#006BFF"/>
<path d="M79.6363 218.652C79.2614 218.714 78.8821 218.746 78.5021 218.747C76.0114 218.747 75.0776 217.918 73.9959 216.96C72.9523 216.034 71.6531 214.883 69.2893 214.883H67.8775C66.1681 214.883 64.6152 215.504 63.5029 216.63C62.4165 217.729 61.8184 219.235 61.8184 220.869V222.8C61.8184 224.434 62.4165 225.94 63.5029 227.04C64.6152 228.165 66.1681 228.785 67.8775 228.785H69.2893C71.6531 228.785 72.9523 227.635 73.9959 226.71C75.0776 225.756 76.0114 224.922 78.5021 224.922C78.8819 224.922 79.2612 224.952 79.6363 225.013C79.8516 224.475 80.0114 223.918 80.1132 223.348C80.1138 223.338 80.1138 223.329 80.1132 223.319C79.5803 223.221 79.0393 223.171 78.4973 223.171C72.7739 223.171 73.0734 227.036 69.2845 227.036H67.8728C65.2724 227.036 63.564 225.178 63.564 222.8V220.865C63.564 218.488 65.2724 216.631 67.8728 216.631H69.2845C73.0734 216.631 72.7758 220.493 78.4973 220.493C79.0394 220.494 79.5803 220.444 80.1132 220.345C80.1132 220.337 80.1132 220.328 80.1132 220.318C80.0107 219.748 79.8509 219.19 79.6363 218.652Z" fill="#0AE8F0"/>
<path d="M79.6363 218.652C79.2614 218.714 78.8821 218.746 78.5021 218.747C76.0114 218.747 75.0776 217.918 73.9959 216.96C72.9523 216.034 71.6531 214.883 69.2893 214.883H67.8775C66.1681 214.883 64.6152 215.504 63.5029 216.63C62.4165 217.729 61.8184 219.235 61.8184 220.869V222.8C61.8184 224.434 62.4165 225.94 63.5029 227.04C64.6152 228.165 66.1681 228.785 67.8775 228.785H69.2893C71.6531 228.785 72.9523 227.635 73.9959 226.71C75.0776 225.756 76.0114 224.922 78.5021 224.922C78.8819 224.922 79.2612 224.952 79.6363 225.013C79.8516 224.475 80.0114 223.918 80.1132 223.348C80.1138 223.338 80.1138 223.329 80.1132 223.319C79.5803 223.221 79.0393 223.171 78.4973 223.171C72.7739 223.171 73.0734 227.036 69.2845 227.036H67.8728C65.2724 227.036 63.564 225.178 63.564 222.8V220.865C63.564 218.488 65.2724 216.631 67.8728 216.631H69.2845C73.0734 216.631 72.7758 220.493 78.4973 220.493C79.0394 220.494 79.5803 220.444 80.1132 220.345C80.1132 220.337 80.1132 220.328 80.1132 220.318C80.0107 219.748 79.8509 219.19 79.6363 218.652Z" fill="#0AE8F0"/>
<g filter="url(#filter5_d_234_67396)">
<path fill-rule="evenodd" clip-rule="evenodd" d="M334.169 222.508V235.108C334.169 238.739 332.714 241.462 329.7 243.224C322.425 247.442 315.046 251.714 307.771 255.932C304.601 257.694 301.431 257.801 298.21 255.932C290.935 251.714 283.556 247.549 276.28 243.331C273.37 241.569 271.656 239.059 271.656 235.589C271.552 226.832 271.656 217.862 271.656 209.053C271.656 205.422 273.63 202.966 276.644 201.204C283.711 197.092 290.935 193.088 297.898 188.87C301.328 186.841 304.809 187.001 308.083 188.977C315.098 193.088 322.061 197.092 329.077 201.044C332.506 203.072 334.273 205.902 334.065 210.014C334.065 214.071 334.169 218.29 334.169 222.508Z" fill="white"/>
</g>
<path fill-rule="evenodd" clip-rule="evenodd" d="M288.437 216.051H288.182V216.308V219.096V219.353H288.437H292.341V230.052V230.31H292.596H295.599H295.855V230.052V219.353H299.758H300.014V219.096V216.308V216.051H299.758H288.437V216.051Z" fill="#004392"/>
<path fill-rule="evenodd" clip-rule="evenodd" d="M304.133 216.05H309.716C314.07 216.05 317.231 219.046 317.231 223.178C317.231 227.309 314.07 230.309 309.716 230.309H304.133V216.05ZM307.647 227.072H309.717V227.063C312.025 227.063 313.576 225.52 313.576 223.198C313.576 220.875 312.025 219.315 309.717 219.315H307.647V227.072Z" fill="#004392"/>
<path fill-rule="evenodd" clip-rule="evenodd" d="M315.421 206.285C317.077 206.285 318.419 204.934 318.419 203.268C318.419 201.602 317.077 200.251 315.421 200.251C313.764 200.251 312.422 201.602 312.422 203.268C312.422 204.934 313.764 206.285 315.421 206.285Z" fill="#004392"/>
<path fill-rule="evenodd" clip-rule="evenodd" d="M324.38 205.91L321.99 204.522C321.74 205.163 321.399 205.764 320.975 206.306L323.357 207.689C324.492 208.352 325.192 209.57 325.195 210.89V232.795C325.193 234.115 324.492 235.334 323.357 235.995L304.501 246.948C303.363 247.607 301.962 247.607 300.824 246.948L281.968 235.995C280.827 235.338 280.12 234.118 280.114 232.795V210.89C280.117 209.57 280.817 208.352 281.952 207.689L300.808 196.737C301.946 196.078 303.347 196.078 304.485 196.737L308.899 199.288C309.155 198.651 309.504 198.055 309.934 197.521L305.523 194.957C303.754 193.932 301.576 193.932 299.806 194.957L280.95 205.91C279.19 206.943 278.108 208.84 278.109 210.89V232.795C278.113 234.849 279.202 236.747 280.97 237.775L299.826 248.728C301.596 249.751 303.774 249.751 305.544 248.728L324.4 237.775C326.159 236.741 327.24 234.845 327.24 232.795V210.89C327.236 208.836 326.147 206.939 324.38 205.91Z" fill="#1976D3"/>
<g filter="url(#filter6_d_234_67396)">
<path fill-rule="evenodd" clip-rule="evenodd" d="M177.308 222.508V235.109C177.308 238.739 175.853 241.462 172.839 243.224C165.564 247.442 158.185 251.714 150.91 255.932C147.74 257.694 144.57 257.801 141.348 255.932C134.073 251.714 126.694 247.549 119.419 243.331C116.509 241.569 114.794 239.06 114.794 235.589C114.69 226.833 114.794 217.863 114.794 209.053C114.794 205.422 116.769 202.966 119.783 201.204C126.85 197.093 134.073 193.088 141.036 188.87C144.466 186.841 147.948 187.001 151.222 188.977C158.237 193.088 165.2 197.093 172.215 201.044C175.645 203.073 177.412 205.903 177.204 210.014C177.204 214.072 177.308 218.29 177.308 222.508Z" fill="white"/>
</g>
<g clip-path="url(#clip1_234_67396)">
<path d="M154.184 219.703C154.428 219.676 154.658 219.676 154.875 219.703C154.997 219.419 155.024 218.931 154.902 218.403C154.74 217.617 154.509 217.129 154.049 217.211C153.588 217.278 153.574 217.861 153.737 218.647C153.832 219.08 154.008 219.46 154.184 219.703Z" fill="black"/>
<path d="M150.229 220.327C150.554 220.476 150.757 220.571 150.839 220.489C150.893 220.435 150.879 220.34 150.798 220.205C150.636 219.934 150.297 219.663 149.945 219.514C149.213 219.202 148.346 219.311 147.682 219.785C147.465 219.947 147.249 220.178 147.276 220.313C147.289 220.354 147.316 220.394 147.398 220.394C147.574 220.422 148.211 220.096 148.956 220.042C149.47 220.015 149.89 220.178 150.229 220.327Z" fill="black"/>
<path d="M149.564 220.706C149.131 220.774 148.9 220.909 148.738 221.045C148.602 221.153 148.521 221.289 148.535 221.37C148.535 221.411 148.548 221.438 148.562 221.451C148.575 221.465 148.602 221.478 148.63 221.478C148.724 221.478 148.941 221.397 148.941 221.397C149.537 221.18 149.93 221.207 150.323 221.248C150.54 221.275 150.648 221.289 150.689 221.207C150.702 221.18 150.716 221.14 150.675 221.072C150.58 220.909 150.147 220.625 149.564 220.706Z" fill="black"/>
<path d="M152.844 222.089C153.142 222.238 153.453 222.17 153.562 221.967C153.67 221.75 153.521 221.465 153.223 221.316C152.925 221.167 152.613 221.235 152.505 221.438C152.41 221.655 152.559 221.953 152.844 222.089Z" fill="black"/>
<path d="M154.726 220.448C154.483 220.448 154.293 220.706 154.293 221.031C154.293 221.356 154.469 221.627 154.713 221.627C154.957 221.627 155.146 221.37 155.146 221.045C155.146 220.719 154.97 220.462 154.726 220.448Z" fill="black"/>
<path d="M138.794 226.314C138.74 226.246 138.632 226.26 138.551 226.287C138.483 226.301 138.415 226.314 138.334 226.314C138.158 226.314 138.009 226.233 137.927 226.111C137.819 225.948 137.819 225.691 137.941 225.42C137.955 225.379 137.982 225.339 137.995 225.298C138.185 224.865 138.51 224.16 138.144 223.469C137.873 222.954 137.44 222.643 136.911 222.575C136.41 222.507 135.882 222.697 135.557 223.063C135.028 223.645 134.947 224.431 135.055 224.702C135.096 224.81 135.15 224.838 135.191 224.838C135.286 224.851 135.408 224.783 135.489 224.567C135.489 224.553 135.502 224.526 135.516 224.499C135.557 224.377 135.624 224.16 135.733 223.984C135.868 223.767 136.085 223.632 136.329 223.578C136.586 223.523 136.844 223.578 137.06 223.713C137.426 223.957 137.575 224.404 137.413 224.838C137.331 225.054 137.196 225.488 137.223 225.84C137.277 226.544 137.711 226.829 138.104 226.856C138.483 226.87 138.754 226.653 138.822 226.504C138.849 226.395 138.808 226.341 138.794 226.314Z" fill="black"/>
<path d="M142.398 213.337C143.644 211.901 145.162 210.654 146.53 209.964C146.571 209.936 146.625 209.991 146.598 210.031C146.489 210.234 146.286 210.654 146.218 210.966C146.205 211.02 146.259 211.047 146.3 211.02C147.153 210.438 148.63 209.814 149.93 209.747C149.985 209.747 150.012 209.814 149.971 209.855C149.768 210.004 149.565 210.221 149.402 210.424C149.375 210.465 149.402 210.505 149.443 210.519C150.35 210.519 151.637 210.844 152.477 211.318C152.532 211.345 152.491 211.454 152.437 211.44C151.177 211.156 149.104 210.925 146.95 211.454C145.026 211.928 143.563 212.646 142.493 213.418C142.425 213.459 142.357 213.391 142.398 213.337ZM153.683 227.805C153.724 227.792 153.751 227.751 153.737 227.711C153.737 227.656 153.683 227.616 153.629 227.629C153.629 227.629 150.987 228.022 148.494 227.101C148.765 226.22 149.483 226.532 150.581 226.627C152.545 226.749 154.32 226.451 155.62 226.085C156.745 225.76 158.235 225.123 159.387 224.215C159.779 225.069 159.915 226.017 159.915 226.017C159.915 226.017 160.213 225.963 160.47 226.112C160.714 226.261 160.877 226.559 160.768 227.345C160.525 228.822 159.901 230.014 158.845 231.111C158.208 231.802 157.436 232.398 156.542 232.832C156.067 233.075 155.566 233.292 155.038 233.468C151.082 234.755 147.031 233.346 145.717 230.285C145.609 230.054 145.528 229.81 145.46 229.567C144.904 227.562 145.379 225.137 146.855 223.619C146.95 223.524 147.045 223.403 147.045 223.267C147.045 223.145 146.964 223.023 146.909 222.928C146.395 222.183 144.606 220.896 144.959 218.431C145.216 216.656 146.774 215.41 148.223 215.477C148.345 215.477 148.467 215.491 148.589 215.504C149.212 215.545 149.768 215.626 150.283 215.64C151.15 215.681 151.922 215.545 152.843 214.786C153.155 214.529 153.399 214.299 153.819 214.231C153.859 214.217 153.968 214.19 154.198 214.19C154.428 214.204 154.631 214.258 154.835 214.394C155.566 214.881 155.675 216.073 155.715 216.94C155.742 217.442 155.797 218.634 155.824 218.986C155.864 219.772 156.081 219.88 156.501 220.029C156.731 220.111 156.962 220.165 157.273 220.26C158.249 220.53 158.831 220.815 159.197 221.167C159.414 221.384 159.522 221.628 159.549 221.858C159.671 222.698 158.899 223.741 156.867 224.676C154.645 225.706 151.949 225.963 150.093 225.76C149.944 225.746 149.443 225.692 149.443 225.692C147.953 225.489 147.099 227.413 147.993 228.74C148.576 229.594 150.134 230.149 151.705 230.149C155.309 230.149 158.072 228.618 159.102 227.291C159.129 227.25 159.129 227.25 159.183 227.169C159.238 227.087 159.197 227.047 159.129 227.087C158.289 227.656 154.55 229.946 150.554 229.255C150.554 229.255 150.066 229.174 149.619 228.998C149.267 228.862 148.535 228.523 148.44 227.765C151.651 228.754 153.683 227.805 153.683 227.805ZM135.963 220.138C134.839 220.354 133.85 220.991 133.254 221.872C132.888 221.574 132.224 220.991 132.102 220.761C131.14 218.932 133.159 215.369 134.568 213.35C138.049 208.378 143.509 204.612 146.042 205.303C146.449 205.425 147.817 206.997 147.817 206.997C147.817 206.997 145.297 208.392 142.954 210.356C139.783 212.781 137.399 216.317 135.963 220.138ZM137.846 228.551C137.67 228.578 137.507 228.591 137.331 228.591C135.651 228.537 133.823 227.02 133.646 225.218C133.443 223.226 134.459 221.696 136.261 221.33C136.478 221.289 136.735 221.262 137.02 221.276C138.036 221.33 139.512 222.102 139.851 224.31C140.149 226.261 139.675 228.239 137.846 228.551ZM160.714 225.028C160.701 224.974 160.606 224.635 160.47 224.215C160.335 223.795 160.213 223.511 160.213 223.511C160.728 222.739 160.741 222.034 160.674 221.641C160.606 221.154 160.403 220.734 159.983 220.314C159.576 219.88 158.736 219.447 157.558 219.108C157.422 219.067 156.975 218.945 156.934 218.932C156.934 218.905 156.907 217.482 156.88 216.859C156.867 216.412 156.826 215.721 156.609 215.044C156.352 214.123 155.905 213.31 155.349 212.795C156.88 211.196 157.842 209.449 157.842 207.945C157.842 205.046 154.279 204.165 149.903 205.981C149.903 205.981 148.982 206.373 148.969 206.373C148.969 206.373 147.289 204.721 147.262 204.707C142.276 200.358 126.642 217.726 131.641 221.939L132.739 222.861C132.454 223.592 132.346 224.432 132.441 225.34C132.563 226.505 133.159 227.616 134.121 228.469C135.042 229.282 136.248 229.797 137.426 229.797C139.377 234.281 143.807 237.031 149.023 237.18C154.604 237.343 159.305 234.728 161.27 230.014C161.392 229.689 161.947 228.198 161.947 226.884C161.933 225.57 161.188 225.028 160.714 225.028Z" fill="black"/>
</g>
<g filter="url(#filter7_d_234_67396)">
<path fill-rule="evenodd" clip-rule="evenodd" d="M255.738 221.489V234.09C255.738 237.721 254.283 240.444 251.269 242.206C243.994 246.424 236.615 250.695 229.34 254.913C226.17 256.675 223 256.782 219.778 254.913C212.503 250.695 205.124 246.531 197.849 242.313C194.939 240.551 193.224 238.041 193.224 234.571C193.12 225.814 193.224 216.844 193.224 208.034C193.224 204.403 195.199 201.947 198.213 200.185C205.28 196.074 212.503 192.07 219.466 187.852C222.896 185.823 226.378 185.983 229.651 187.958C236.667 192.07 243.63 196.074 250.645 200.025C254.075 202.054 255.842 204.884 255.634 208.995C255.634 213.053 255.738 217.271 255.738 221.489Z" fill="white"/>
</g>
<path d="M236.506 212.272L231.127 206.787L227.443 203.01H227.43V202.997V203.01H214.577C213.517 203.01 212.656 203.858 212.656 204.918V234.267C212.656 235.327 213.517 236.188 214.577 236.188H234.585C235.645 236.188 236.506 235.327 236.506 234.267V212.272ZM228.887 206.575L230.093 207.807L233.035 210.815H229.351C229.099 210.815 228.887 210.603 228.887 210.351V206.575ZM235.049 212.882V234.267C235.049 234.519 234.837 234.731 234.585 234.731H214.577C214.326 234.731 214.114 234.519 214.114 234.267V204.918C214.114 204.667 214.326 204.455 214.577 204.455H226.834L227.43 205.064V210.351C227.43 211.411 228.291 212.272 229.351 212.272H234.466L235.049 212.882Z" fill="#0E9D57"/>
<path fill-rule="evenodd" clip-rule="evenodd" d="M230.781 230.054H218.379V219.308H230.781V230.054ZM225.348 220.845V222.766H229.244V220.845H225.348ZM225.348 223.919V225.708H229.244V223.919H225.348ZM225.348 226.86V228.517H229.244V226.86H225.348ZM223.811 228.517V226.86H219.916V228.517H223.811ZM223.811 225.708V223.919H219.916V225.708H223.811ZM223.811 222.766V220.845H219.916V222.766H223.811Z" fill="#0E9D57"/>
<path d="M538.512 227.182C538.378 227.182 538.244 227.157 538.12 227.106C537.995 227.055 537.882 226.98 537.786 226.885L531.65 220.749C531.458 220.557 531.35 220.295 531.35 220.023C531.35 219.751 531.458 219.49 531.65 219.297C531.843 219.105 532.104 218.996 532.376 218.996C532.649 218.996 532.91 219.105 533.103 219.297L538.512 224.717L543.922 219.307C544.118 219.14 544.369 219.052 544.627 219.062C544.884 219.072 545.128 219.179 545.31 219.361C545.492 219.543 545.599 219.787 545.609 220.045C545.619 220.302 545.531 220.554 545.364 220.749L539.228 226.885C539.038 227.074 538.781 227.18 538.512 227.182Z" fill="black"/>
<path d="M354.624 223.236H356.967L356.699 222.232C356.398 221.144 356.113 219.855 355.812 218.717H355.745C355.494 219.872 355.193 221.144 354.891 222.232L354.624 223.236ZM358.138 227.755L357.469 225.16H354.121L353.452 227.755H350.941L354.372 216.842H357.318L360.749 227.755H358.138ZM362.047 224.608V219.453H364.507V224.29C364.507 225.478 364.825 225.863 365.545 225.863C366.164 225.863 366.532 225.596 367.018 224.943V219.453H369.478V227.755H367.469L367.285 226.6H367.235C366.532 227.437 365.762 227.955 364.624 227.955C362.817 227.955 362.047 226.683 362.047 224.608ZM372.4 224.742V221.378H371.262V219.554L372.534 219.453L372.818 217.244H374.86V219.453H376.852V221.378H374.86V224.709C374.86 225.646 375.279 226.031 375.931 226.031C376.199 226.031 376.501 225.947 376.718 225.863L377.103 227.654C376.668 227.788 376.065 227.955 375.262 227.955C373.203 227.955 372.4 226.667 372.4 224.742ZM378.246 223.604C378.246 220.842 380.187 219.252 382.296 219.252C384.388 219.252 386.33 220.842 386.33 223.604C386.33 226.365 384.388 227.955 382.296 227.955C380.187 227.955 378.246 226.365 378.246 223.604ZM380.773 223.604C380.773 225.043 381.275 225.964 382.296 225.964C383.3 225.964 383.819 225.043 383.819 223.604C383.819 222.165 383.3 221.244 382.296 221.244C381.275 221.244 380.773 222.165 380.773 223.604ZM388.437 227.755V219.453H390.446L390.613 220.524H390.68C391.366 219.838 392.103 219.252 393.191 219.252C394.362 219.252 395.065 219.754 395.484 220.642C396.22 219.888 396.99 219.252 398.094 219.252C399.885 219.252 400.689 220.524 400.689 222.6V227.755H398.228V222.918C398.228 221.713 397.91 221.344 397.207 221.344C396.789 221.344 396.32 221.612 395.785 222.148V227.755H393.324V222.918C393.324 221.713 393.006 221.344 392.304 221.344C391.902 221.344 391.416 221.612 390.898 222.148V227.755H388.437ZM402.909 225.445C402.909 223.704 404.298 222.75 407.578 222.416C407.528 221.679 407.16 221.211 406.273 221.211C405.57 221.211 404.867 221.495 404.064 221.964L403.193 220.34C404.248 219.704 405.436 219.252 406.742 219.252C408.867 219.252 410.039 220.457 410.039 223.001V227.755H408.03L407.846 226.901H407.796C407.093 227.52 406.306 227.955 405.369 227.955C403.863 227.955 402.909 226.851 402.909 225.445ZM405.252 225.261C405.252 225.796 405.62 226.047 406.206 226.047C406.775 226.047 407.143 225.78 407.578 225.345V223.888C405.821 224.123 405.252 224.625 405.252 225.261ZM412.908 224.742V221.378H411.77V219.554L413.042 219.453L413.326 217.244H415.368V219.453H417.36V221.378H415.368V224.709C415.368 225.646 415.786 226.031 416.439 226.031C416.707 226.031 417.008 225.947 417.226 225.863L417.611 227.654C417.176 227.788 416.573 227.955 415.77 227.955C413.711 227.955 412.908 226.667 412.908 224.742ZM420.624 218.231C419.804 218.231 419.202 217.696 419.202 216.943C419.202 216.19 419.804 215.671 420.624 215.671C421.461 215.671 422.047 216.19 422.047 216.943C422.047 217.696 421.461 218.231 420.624 218.231ZM419.402 227.755V219.453H421.863V227.755H419.402ZM423.965 223.604C423.965 220.842 425.99 219.252 428.283 219.252C429.304 219.252 430.158 219.637 430.71 220.206L429.589 221.729C429.187 221.395 428.819 221.244 428.434 221.244C427.245 221.244 426.492 222.165 426.492 223.604C426.492 225.043 427.279 225.964 428.35 225.964C428.953 225.964 429.438 225.679 429.84 225.361L430.827 226.918C430.024 227.621 428.969 227.955 428.065 227.955C425.756 227.955 423.965 226.365 423.965 223.604ZM432.221 225.445C432.221 223.704 433.61 222.75 436.89 222.416C436.84 221.679 436.472 221.211 435.585 221.211C434.882 221.211 434.179 221.495 433.376 221.964L432.505 220.34C433.56 219.704 434.748 219.252 436.053 219.252C438.179 219.252 439.351 220.457 439.351 223.001V227.755H437.342L437.158 226.901H437.108C436.405 227.52 435.618 227.955 434.681 227.955C433.175 227.955 432.221 226.851 432.221 225.445ZM434.564 225.261C434.564 225.796 434.932 226.047 435.518 226.047C436.087 226.047 436.455 225.78 436.89 225.345V223.888C435.133 224.123 434.564 224.625 434.564 225.261ZM441.885 225.177V216.022H444.345V225.278C444.345 225.796 444.579 225.964 444.78 225.964C444.881 225.964 444.948 225.964 445.082 225.93L445.383 227.755C445.115 227.872 444.697 227.955 444.144 227.955C442.454 227.955 441.885 226.851 441.885 225.177ZM447.096 225.177V216.022H449.556V225.278C449.556 225.796 449.791 225.964 449.992 225.964C450.092 225.964 450.159 225.964 450.293 225.93L450.594 227.755C450.326 227.872 449.908 227.955 449.356 227.955C447.665 227.955 447.096 226.851 447.096 225.177ZM452.492 228.96C452.642 228.993 452.86 229.06 453.044 229.06C453.864 229.06 454.282 228.625 454.5 227.972L454.617 227.537L451.42 219.453H453.897L455.086 223.018C455.32 223.771 455.521 224.558 455.739 225.378H455.805C455.99 224.591 456.174 223.805 456.375 223.018L457.379 219.453H459.739L456.86 227.838C456.073 229.93 455.186 231.002 453.228 231.002C452.726 231.002 452.391 230.935 452.056 230.834L452.492 228.96ZM464.926 223.604C464.926 220.893 466.617 219.252 468.374 219.252C469.295 219.252 469.847 219.587 470.416 220.123L470.316 218.851V216.022H472.776V227.755H470.768L470.6 226.935H470.533C469.947 227.52 469.127 227.955 468.324 227.955C466.265 227.955 464.926 226.315 464.926 223.604ZM467.454 223.57C467.454 225.211 468.006 225.947 468.96 225.947C469.496 225.947 469.914 225.746 470.316 225.194V221.796C469.881 221.395 469.395 221.261 468.943 221.261C468.157 221.261 467.454 221.997 467.454 223.57ZM474.893 223.604C474.893 220.842 476.834 219.252 478.943 219.252C481.035 219.252 482.977 220.842 482.977 223.604C482.977 226.365 481.035 227.955 478.943 227.955C476.834 227.955 474.893 226.365 474.893 223.604ZM477.42 223.604C477.42 225.043 477.922 225.964 478.943 225.964C479.947 225.964 480.466 225.043 480.466 223.604C480.466 222.165 479.947 221.244 478.943 221.244C477.922 221.244 477.42 222.165 477.42 223.604ZM489.323 224.742V221.378H488.185V219.554L489.457 219.453L489.741 217.244H491.783V219.453H493.775V221.378H491.783V224.709C491.783 225.646 492.202 226.031 492.854 226.031C493.122 226.031 493.423 225.947 493.641 225.863L494.026 227.654C493.591 227.788 492.988 227.955 492.185 227.955C490.126 227.955 489.323 226.667 489.323 224.742ZM495.818 227.755V216.022H498.278V218.901L498.161 220.39C498.78 219.838 499.6 219.252 500.721 219.252C502.529 219.252 503.299 220.524 503.299 222.6V227.755H500.839V222.918C500.839 221.713 500.521 221.344 499.818 221.344C499.198 221.344 498.813 221.629 498.278 222.148V227.755H495.818ZM507.023 218.231C506.203 218.231 505.601 217.696 505.601 216.943C505.601 216.19 506.203 215.671 507.023 215.671C507.86 215.671 508.446 216.19 508.446 216.943C508.446 217.696 507.86 218.231 507.023 218.231ZM505.801 227.755V219.453H508.262V227.755H505.801ZM510.113 226.801L511.218 225.261C511.971 225.83 512.657 226.131 513.36 226.131C514.096 226.131 514.414 225.863 514.414 225.428C514.414 224.876 513.577 224.625 512.724 224.29C511.72 223.905 510.531 223.219 510.531 221.847C510.531 220.307 511.787 219.252 513.711 219.252C514.983 219.252 515.921 219.771 516.64 220.307L515.536 221.78C514.933 221.344 514.364 221.077 513.778 221.077C513.142 221.077 512.841 221.311 512.841 221.729C512.841 222.265 513.611 222.466 514.464 222.784C515.519 223.169 516.707 223.755 516.707 225.278C516.707 226.784 515.519 227.955 513.293 227.955C512.205 227.955 510.95 227.487 510.113 226.801ZM519.646 223.888L519.295 218.767L519.211 216.541H521.688L521.604 218.767L521.253 223.888H519.646ZM518.96 226.416C518.96 225.529 519.596 224.859 520.449 224.859C521.303 224.859 521.939 225.529 521.939 226.416C521.939 227.286 521.303 227.955 520.449 227.955C519.596 227.955 518.96 227.286 518.96 226.416Z" fill="black"/>
<rect x="19" y="170.104" width="543.926" height="103.896" rx="4.78193" stroke="#1976D3" stroke-width="0.796988"/>
<rect x="37.334" y="168.067" width="134.454" height="3.05576" fill="#F3F8FD"/>
<path d="M54.1828 168.852C54.1828 166.212 55.9307 164.672 57.9842 164.672C58.9743 164.672 59.8055 165.161 60.3433 165.711L59.3532 166.823C58.9498 166.457 58.5709 166.224 58.0087 166.224C56.8964 166.224 56.0285 167.19 56.0285 168.791C56.0285 170.429 56.7986 171.382 57.9598 171.382C58.6198 171.382 59.0843 171.101 59.4754 170.673L60.4655 171.761C59.8055 172.531 58.9254 172.935 57.9353 172.935C55.8696 172.935 54.1828 171.529 54.1828 168.852ZM61.94 172.788V164.22H63.7368V166.322L63.6513 167.41C64.1035 167.007 64.7024 166.579 65.5214 166.579C66.8415 166.579 67.4037 167.508 67.4037 169.023V172.788H65.607V169.256C65.607 168.376 65.3747 168.107 64.8613 168.107C64.4091 168.107 64.128 168.314 63.7368 168.693V172.788H61.94ZM68.9909 169.757C68.9909 167.74 70.4087 166.579 71.9488 166.579C73.4767 166.579 74.8946 167.74 74.8946 169.757C74.8946 171.774 73.4767 172.935 71.9488 172.935C70.4087 172.935 68.9909 171.774 68.9909 169.757ZM70.8365 169.757C70.8365 170.808 71.2032 171.48 71.9488 171.48C72.6822 171.48 73.0611 170.808 73.0611 169.757C73.0611 168.706 72.6822 168.033 71.9488 168.033C71.2032 168.033 70.8365 168.706 70.8365 169.757ZM76.1932 169.757C76.1932 167.74 77.6111 166.579 79.1512 166.579C80.6791 166.579 82.097 167.74 82.097 169.757C82.097 171.774 80.6791 172.935 79.1512 172.935C77.6111 172.935 76.1932 171.774 76.1932 169.757ZM78.0389 169.757C78.0389 170.808 78.4056 171.48 79.1512 171.48C79.8846 171.48 80.2635 170.808 80.2635 169.757C80.2635 168.706 79.8846 168.033 79.1512 168.033C78.4056 168.033 78.0389 168.706 78.0389 169.757ZM83.1526 172.091L83.9593 170.967C84.5093 171.382 85.0105 171.602 85.5239 171.602C86.0617 171.602 86.2939 171.407 86.2939 171.089C86.2939 170.686 85.6828 170.502 85.0594 170.258C84.326 169.977 83.4582 169.476 83.4582 168.473C83.4582 167.349 84.3749 166.579 85.7805 166.579C86.7095 166.579 87.394 166.958 87.9196 167.349L87.1129 168.424C86.6728 168.107 86.2572 167.911 85.8294 167.911C85.365 167.911 85.1449 168.082 85.1449 168.388C85.1449 168.779 85.7072 168.926 86.3306 169.158C87.1006 169.439 87.9685 169.867 87.9685 170.979C87.9685 172.079 87.1006 172.935 85.475 172.935C84.6805 172.935 83.7637 172.593 83.1526 172.091ZM89.1775 169.757C89.1775 167.789 90.5832 166.579 92.0377 166.579C93.7612 166.579 94.6168 167.838 94.6168 169.488C94.6168 169.806 94.5801 170.099 94.5435 170.246H90.9132C91.0721 171.162 91.6833 171.566 92.49 171.566C92.9422 171.566 93.3578 171.431 93.7979 171.162L94.3968 172.25C93.7734 172.678 92.9667 172.935 92.2455 172.935C90.5099 172.935 89.1775 171.761 89.1775 169.757ZM90.901 169.133H93.0889C93.0889 168.437 92.7956 167.948 92.0744 167.948C91.5121 167.948 91.0232 168.327 90.901 169.133ZM99.0257 171.101C99.0257 169.83 100.04 169.133 102.436 168.889C102.399 168.351 102.13 168.009 101.483 168.009C100.969 168.009 100.456 168.217 99.8691 168.559L99.2335 167.373C100.004 166.909 100.871 166.579 101.825 166.579C103.377 166.579 104.233 167.459 104.233 169.317V172.788H102.766L102.631 172.165H102.595C102.081 172.617 101.507 172.935 100.822 172.935C99.7224 172.935 99.0257 172.128 99.0257 171.101ZM100.737 170.967C100.737 171.358 101.006 171.541 101.434 171.541C101.849 171.541 102.118 171.346 102.436 171.028V169.965C101.152 170.136 100.737 170.502 100.737 170.967ZM106.197 172.788V166.725H107.664L107.786 167.496H107.835C108.349 167.007 108.96 166.579 109.779 166.579C111.099 166.579 111.661 167.508 111.661 169.023V172.788H109.864V169.256C109.864 168.376 109.632 168.107 109.119 168.107C108.666 168.107 108.385 168.314 107.994 168.693V172.788H106.197ZM118.389 169.488H120.1L119.904 168.754C119.684 167.96 119.476 167.019 119.256 166.188H119.207C119.024 167.031 118.804 167.96 118.584 168.754L118.389 169.488ZM120.955 172.788L120.466 170.894H118.022L117.533 172.788H115.699L118.205 164.819H120.356L122.862 172.788H120.955ZM123.63 169.757C123.63 167.74 125.109 166.579 126.784 166.579C127.53 166.579 128.153 166.86 128.556 167.275L127.737 168.388C127.444 168.143 127.175 168.033 126.894 168.033C126.026 168.033 125.476 168.706 125.476 169.757C125.476 170.808 126.051 171.48 126.833 171.48C127.273 171.48 127.627 171.272 127.921 171.04L128.642 172.177C128.055 172.69 127.285 172.935 126.625 172.935C124.938 172.935 123.63 171.774 123.63 169.757ZM130.357 170.588V168.131H129.526V166.799L130.455 166.725L130.663 165.112H132.154V166.725H133.609V168.131H132.154V170.563C132.154 171.248 132.46 171.529 132.936 171.529C133.132 171.529 133.352 171.468 133.511 171.407L133.792 172.715C133.474 172.813 133.034 172.935 132.448 172.935C130.944 172.935 130.357 171.994 130.357 170.588ZM136.107 165.833C135.508 165.833 135.068 165.442 135.068 164.892C135.068 164.342 135.508 163.963 136.107 163.963C136.718 163.963 137.146 164.342 137.146 164.892C137.146 165.442 136.718 165.833 136.107 165.833ZM135.214 172.788V166.725H137.011V172.788H135.214ZM138.66 169.757C138.66 167.74 140.078 166.579 141.618 166.579C143.146 166.579 144.564 167.74 144.564 169.757C144.564 171.774 143.146 172.935 141.618 172.935C140.078 172.935 138.66 171.774 138.66 169.757ZM140.506 169.757C140.506 170.808 140.873 171.48 141.618 171.48C142.352 171.48 142.731 170.808 142.731 169.757C142.731 168.706 142.352 168.033 141.618 168.033C140.873 168.033 140.506 168.706 140.506 169.757ZM146.217 172.788V166.725H147.684L147.806 167.496H147.855C148.369 167.007 148.98 166.579 149.799 166.579C151.119 166.579 151.681 167.508 151.681 169.023V172.788H149.884V169.256C149.884 168.376 149.652 168.107 149.139 168.107C148.686 168.107 148.405 168.314 148.014 168.693V172.788H146.217ZM153.586 167.85C153.586 167.202 154.05 166.713 154.673 166.713C155.297 166.713 155.761 167.202 155.761 167.85C155.761 168.486 155.297 168.974 154.673 168.974C154.05 168.974 153.586 168.486 153.586 167.85ZM153.586 171.81C153.586 171.162 154.05 170.673 154.673 170.673C155.297 170.673 155.761 171.162 155.761 171.81C155.761 172.446 155.297 172.935 154.673 172.935C154.05 172.935 153.586 172.446 153.586 171.81Z" fill="black"/>
<rect x="289.943" y="121.212" width="1.01859" height="48.8922" fill="#1976D3"/>
<defs>
<filter id="filter0_d_234_67396" x="0.33514" y="22.6381" width="134.523" height="141.836" filterUnits="userSpaceOnUse" color-interpolation-filters="sRGB">
<feFlood flood-opacity="0" result="BackgroundImageFix"/>
<feColorMatrix in="SourceAlpha" type="matrix" values="0 0 0 0 0 0 0 0 0 0 0 0 0 0 0 0 0 0 127 0" result="hardAlpha"/>
<feOffset dy="23.9875"/>
<feGaussianBlur stdDeviation="17.9906"/>
<feColorMatrix type="matrix" values="0 0 0 0 0.168627 0 0 0 0 0.168627 0 0 0 0 0.168627 0 0 0 0.1 0"/>
<feBlend mode="normal" in2="BackgroundImageFix" result="effect1_dropShadow_234_67396"/>
<feBlend mode="normal" in="SourceGraphic" in2="effect1_dropShadow_234_67396" result="shape"/>
</filter>
<filter id="filter1_d_234_67396" x="235.628" y="22.6381" width="134.523" height="141.836" filterUnits="userSpaceOnUse" color-interpolation-filters="sRGB">
<feFlood flood-opacity="0" result="BackgroundImageFix"/>
<feColorMatrix in="SourceAlpha" type="matrix" values="0 0 0 0 0 0 0 0 0 0 0 0 0 0 0 0 0 0 127 0" result="hardAlpha"/>
<feOffset dy="23.9875"/>
<feGaussianBlur stdDeviation="17.9906"/>
<feColorMatrix type="matrix" values="0 0 0 0 0.168627 0 0 0 0 0.168627 0 0 0 0 0.168627 0 0 0 0.1 0"/>
<feBlend mode="normal" in2="BackgroundImageFix" result="effect1_dropShadow_234_67396"/>
<feBlend mode="normal" in="SourceGraphic" in2="effect1_dropShadow_234_67396" result="shape"/>
</filter>
<filter id="filter2_d_234_67396" x="78.7668" y="22.6383" width="134.523" height="141.836" filterUnits="userSpaceOnUse" color-interpolation-filters="sRGB">
<feFlood flood-opacity="0" result="BackgroundImageFix"/>
<feColorMatrix in="SourceAlpha" type="matrix" values="0 0 0 0 0 0 0 0 0 0 0 0 0 0 0 0 0 0 127 0" result="hardAlpha"/>
<feOffset dy="23.9875"/>
<feGaussianBlur stdDeviation="17.9906"/>
<feColorMatrix type="matrix" values="0 0 0 0 0.168627 0 0 0 0 0.168627 0 0 0 0 0.168627 0 0 0 0.1 0"/>
<feBlend mode="normal" in2="BackgroundImageFix" result="effect1_dropShadow_234_67396"/>
<feBlend mode="normal" in="SourceGraphic" in2="effect1_dropShadow_234_67396" result="shape"/>
</filter>
<filter id="filter3_d_234_67396" x="157.196" y="21.6198" width="134.523" height="141.836" filterUnits="userSpaceOnUse" color-interpolation-filters="sRGB">
<feFlood flood-opacity="0" result="BackgroundImageFix"/>
<feColorMatrix in="SourceAlpha" type="matrix" values="0 0 0 0 0 0 0 0 0 0 0 0 0 0 0 0 0 0 127 0" result="hardAlpha"/>
<feOffset dy="23.9875"/>
<feGaussianBlur stdDeviation="17.9906"/>
<feColorMatrix type="matrix" values="0 0 0 0 0.168627 0 0 0 0 0.168627 0 0 0 0 0.168627 0 0 0 0.1 0"/>
<feBlend mode="normal" in2="BackgroundImageFix" result="effect1_dropShadow_234_67396"/>
<feBlend mode="normal" in="SourceGraphic" in2="effect1_dropShadow_234_67396" result="shape"/>
</filter>
<filter id="filter4_d_234_67396" x="0.33514" y="175.426" width="134.523" height="141.836" filterUnits="userSpaceOnUse" color-interpolation-filters="sRGB">
<feFlood flood-opacity="0" result="BackgroundImageFix"/>
<feColorMatrix in="SourceAlpha" type="matrix" values="0 0 0 0 0 0 0 0 0 0 0 0 0 0 0 0 0 0 127 0" result="hardAlpha"/>
<feOffset dy="23.9875"/>
<feGaussianBlur stdDeviation="17.9906"/>
<feColorMatrix type="matrix" values="0 0 0 0 0.168627 0 0 0 0 0.168627 0 0 0 0 0.168627 0 0 0 0.1 0"/>
<feBlend mode="normal" in2="BackgroundImageFix" result="effect1_dropShadow_234_67396"/>
<feBlend mode="normal" in="SourceGraphic" in2="effect1_dropShadow_234_67396" result="shape"/>
</filter>
<filter id="filter5_d_234_67396" x="235.628" y="175.426" width="134.523" height="141.836" filterUnits="userSpaceOnUse" color-interpolation-filters="sRGB">
<feFlood flood-opacity="0" result="BackgroundImageFix"/>
<feColorMatrix in="SourceAlpha" type="matrix" values="0 0 0 0 0 0 0 0 0 0 0 0 0 0 0 0 0 0 127 0" result="hardAlpha"/>
<feOffset dy="23.9875"/>
<feGaussianBlur stdDeviation="17.9906"/>
<feColorMatrix type="matrix" values="0 0 0 0 0.168627 0 0 0 0 0.168627 0 0 0 0 0.168627 0 0 0 0.1 0"/>
<feBlend mode="normal" in2="BackgroundImageFix" result="effect1_dropShadow_234_67396"/>
<feBlend mode="normal" in="SourceGraphic" in2="effect1_dropShadow_234_67396" result="shape"/>
</filter>
<filter id="filter6_d_234_67396" x="78.7668" y="175.426" width="134.523" height="141.836" filterUnits="userSpaceOnUse" color-interpolation-filters="sRGB">
<feFlood flood-opacity="0" result="BackgroundImageFix"/>
<feColorMatrix in="SourceAlpha" type="matrix" values="0 0 0 0 0 0 0 0 0 0 0 0 0 0 0 0 0 0 127 0" result="hardAlpha"/>
<feOffset dy="23.9875"/>
<feGaussianBlur stdDeviation="17.9906"/>
<feColorMatrix type="matrix" values="0 0 0 0 0.168627 0 0 0 0 0.168627 0 0 0 0 0.168627 0 0 0 0.1 0"/>
<feBlend mode="normal" in2="BackgroundImageFix" result="effect1_dropShadow_234_67396"/>
<feBlend mode="normal" in="SourceGraphic" in2="effect1_dropShadow_234_67396" result="shape"/>
</filter>
<filter id="filter7_d_234_67396" x="157.196" y="174.408" width="134.523" height="141.836" filterUnits="userSpaceOnUse" color-interpolation-filters="sRGB">
<feFlood flood-opacity="0" result="BackgroundImageFix"/>
<feColorMatrix in="SourceAlpha" type="matrix" values="0 0 0 0 0 0 0 0 0 0 0 0 0 0 0 0 0 0 127 0" result="hardAlpha"/>
<feOffset dy="23.9875"/>
<feGaussianBlur stdDeviation="17.9906"/>
<feColorMatrix type="matrix" values="0 0 0 0 0.168627 0 0 0 0 0.168627 0 0 0 0 0.168627 0 0 0 0.1 0"/>
<feBlend mode="normal" in2="BackgroundImageFix" result="effect1_dropShadow_234_67396"/>
<feBlend mode="normal" in="SourceGraphic" in2="effect1_dropShadow_234_67396" result="shape"/>
</filter>
<clipPath id="clip0_234_67396">
<rect width="31.2675" height="33.1912" fill="white" transform="translate(130.67 51.2275)"/>
</clipPath>
<clipPath id="clip1_234_67396">
<rect width="31.2675" height="33.1912" fill="white" transform="translate(130.67 204.016)"/>
</clipPath>
</defs>
</svg>
